<?xml version="1.0" encoding="utf-8"?><svg width="680" height="331" viewBox="0 0 680 331" xmlns="http://www.w3.org/2000/svg" xmlns:xlink="http://www.w3.org/1999/xlink"><svg data-name="icon/correct" width="46" height="46" viewBox="0 0 46 46" id="L2hvbWUvdWJ1bnR1L3dvcmtzcGFjZS9kaWdpdF9yZWFkaW5nLWNvbXBfcmVsZWFzZS0xMi42L3NyYy9pbWcvcmM2OF9pY29uX2NvcnJlY3Quc3Zn" y="285" xmlns="http://www.w3.org/2000/svg"><defs><clipPath id="aa"><path data-name="Path 5321" d="M46-23A23 23 0 0123 0 23 23 0 010-23a23 23 0 0123-23 23 23 0 0123 23" fill="none" clip-rule="evenodd"/></clipPath><clipPath id="ab"><path data-name="Path 5323" d="M17.6-12.648l-6.708-8.373a2.142 2.142 0 01.241-2.917 1.912 1.912 0 012.783.254l4.594 5.732 13.653-15.134a1.911 1.911 0 012.792-.081 2.143 2.143 0 01.079 2.928L19.12-12.6a1 1 0 01-1.412.073 1 1 0 01-.108-.121z" fill="none" clip-rule="evenodd"/></clipPath></defs><g data-name="Group 7733" transform="translate(0 46)" clip-path="url(#aa)"><path data-name="Path 5320" d="M-5 5h56v-56H-5z" fill="#39b549"/></g><g data-name="Group 7734" transform="translate(0 46)" clip-path="url(#ab)"><path data-name="Path 5322" d="M5.427-7.273h35.146v-31.46H5.427z" fill="#fff"/></g></svg><svg data-name="icon/incorrect/mc" width="33" height="33" viewBox="0 0 33 33" id="L2hvbWUvdWJ1bnR1L3dvcmtzcGFjZS9kaWdpdF9yZWFkaW5nLWNvbXBfcmVsZWFzZS0xMi42L3NyYy9pbWcvcmM2OF9pY29uX2luY29ycmVjdF9tYy5zdmc=" x="46" y="285" xmlns="http://www.w3.org/2000/svg"><defs><clipPath id="ba"><path data-name="Path 5327" d="M.45.447A1.44 1.44 0 000 1.5a1.337 1.337 0 00.45 1.05l5 5.049-5 5A1.337 1.337 0 000 13.645a1.484 1.484 0 00.919 1.389 1.484 1.484 0 001.631-.339l5-5 5.049 5a1.337 1.337 0 001.05.45 1.537 1.537 0 001.5-1.5A1.337 1.337 0 0014.7 12.6l-5-5 5-5.048a1.337 1.337 0 00.45-1.049 1.537 1.537 0 00-1.5-1.5 1.337 1.337 0 00-1.049.45l-5.048 5-5-5A1.337 1.337 0 001.5 0 1.44 1.44 0 00.446.445z" fill="none" stroke="#fff" stroke-width="10"/></clipPath></defs><circle data-name="Ellipse 771" cx="16.5" cy="16.5" r="16.5" fill="#e63e5a"/><g data-name="icon/incorrect"><g data-name="Group 7754" clip-path="url(#ba)" transform="translate(9.434 8.434)"><g data-name="Path 5326" fill="#fff"><path d="M23.779 23.775H-8.63V-8.63h32.408V23.775z"/><path d="M18.779 18.775V-3.63H-3.63v22.404h22.408m10 10H-13.63V-13.63h42.408V28.775z"/></g></g></g></svg><svg width="340" height="174" viewBox="0 0 340 174" id="L2hvbWUvdWJ1bnR1L3dvcmtzcGFjZS9kaWdpdF9yZWFkaW5nLWNvbXBfcmVsZWFzZS0xMi42L3NyYy9yZW5kZXJlcnMvc21fdDFfczEvaW1nL3JjNjhfc2JfaW5mb18uc3Zn" xmlns="http://www.w3.org/2000/svg"><defs><clipPath id="ca"><path data-name="Path 5995" d="M338-174a2 2 0 012 2v38a2 2 0 01-2 2H15a2 2 0 01-2-2v-38a2 2 0 012-2zm-165 10h-62a11 11 0 00-11 11 11 11 0 0011 11h62a11 11 0 0011-11 11 11 0 00-11-11z" fill="none" clip-rule="evenodd"/></clipPath><clipPath id="cb"><path data-name="Path 5997" d="M13-140a13 13 0 0013-13 13 13 0 00-13-13 13 13 0 00-13 13 13 13 0 0013 13z" fill="none" clip-rule="evenodd"/></clipPath><clipPath id="cc"><path data-name="Path 5999" d="M338-86a2 2 0 012 2v38a2 2 0 01-2 2H15a2 2 0 01-2-2v-38a2 2 0 012-2zm-81 10h-62a11 11 0 00-11 11 11 11 0 0011 11h62a11 11 0 0011-11 11 11 0 00-11-11z" fill="none" clip-rule="evenodd"/></clipPath><clipPath id="cd"><path data-name="Path 6001" d="M13-52a13 13 0 0013-13 13 13 0 00-13-13A13 13 0 000-65a13 13 0 0013 13z" fill="none" clip-rule="evenodd"/></clipPath><clipPath id="ce"><path data-name="Path 6003" d="M338-130a2 2 0 012 2v38a2 2 0 01-2 2H15a2 2 0 01-2-2v-38a2 2 0 012-2zm-206 10H70a11 11 0 00-11 11 11 11 0 0011 11h62a11 11 0 0011-11 11 11 0 00-11-11z" fill="none" clip-rule="evenodd"/></clipPath><clipPath id="cf"><path data-name="Path 6005" d="M13-96a13 13 0 0013-13 13 13 0 00-13-13 13 13 0 00-13 13 13 13 0 0013 13z" fill="none" clip-rule="evenodd"/></clipPath><clipPath id="cg"><path data-name="Path 6007" d="M338-42a2 2 0 012 2v38a2 2 0 01-2 2H15a2 2 0 01-2-2v-38a2 2 0 012-2zM214-32h-62a11 11 0 00-11 11 11 11 0 0011 11h62a11 11 0 0011-11 11 11 0 00-11-11z" fill="none" clip-rule="evenodd"/></clipPath><clipPath id="ch"><path data-name="Path 6009" d="M13-8a13 13 0 0013-13 13 13 0 00-13-13A13 13 0 000-21 13 13 0 0013-8z" fill="none" clip-rule="evenodd"/></clipPath></defs><g data-name="Group 8445" transform="translate(0 174)" clip-path="url(#ca)"><path data-name="Path 5994" d="M8-127h337v-52H8z" fill="#3a539a"/></g><g data-name="Group 8446" transform="translate(0 174)" clip-path="url(#cb)"><path data-name="Path 5996" d="M-5-135h36v-36H-5z" fill="#3a539a"/></g><g data-name="Group 8447" transform="translate(0 174)" clip-path="url(#cc)"><path data-name="Path 5998" d="M8-39h337v-52H8z" fill="#3a539a"/></g><g data-name="Group 8448" transform="translate(0 174)" clip-path="url(#cd)"><path data-name="Path 6000" d="M-5-47h36v-36H-5z" fill="#3a539a"/></g><g data-name="Group 8449" transform="translate(0 174)" clip-path="url(#ce)"><path data-name="Path 6002" d="M8-83h337v-52H8z" fill="#3a539a"/></g><g data-name="Group 8450" transform="translate(0 174)" clip-path="url(#cf)"><path data-name="Path 6004" d="M-5-91h36v-36H-5z" fill="#3a539a"/></g><g data-name="Group 8451" transform="translate(0 174)" clip-path="url(#cg)"><path data-name="Path 6006" d="M8 5h337v-52H8z" fill="#3a539a"/></g><g data-name="Group 8452" transform="translate(0 174)" clip-path="url(#ch)"><path data-name="Path 6008" d="M-5-3h36v-36H-5z" fill="#3a539a"/></g></svg><svg width="340" height="174" viewBox="0 0 340 174" id="L2hvbWUvdWJ1bnR1L3dvcmtzcGFjZS9kaWdpdF9yZWFkaW5nLWNvbXBfcmVsZWFzZS0xMi42L3NyYy9yZW5kZXJlcnMvc21fdDFfczEvaW1nL3JjNjhfc2JfaW5mb19xdWl6LnN2Zw==" x="340" xmlns="http://www.w3.org/2000/svg"><defs><clipPath id="da"><path data-name="Path 5995" d="M338-174a2 2 0 012 2v38a2 2 0 01-2 2H15a2 2 0 01-2-2v-38a2 2 0 012-2zm-165 10h-62a11 11 0 00-11 11 11 11 0 0011 11h62a11 11 0 0011-11 11 11 0 00-11-11z" fill="#4a3c85" clip-rule="evenodd"/></clipPath><clipPath id="db"><path data-name="Path 5997" d="M13-140a13 13 0 0013-13 13 13 0 00-13-13 13 13 0 00-13 13 13 13 0 0013 13z" fill="#4a3c85" clip-rule="evenodd"/></clipPath><clipPath id="dc"><path data-name="Path 5999" d="M338-86a2 2 0 012 2v38a2 2 0 01-2 2H15a2 2 0 01-2-2v-38a2 2 0 012-2zm-81 10h-62a11 11 0 00-11 11 11 11 0 0011 11h62a11 11 0 0011-11 11 11 0 00-11-11z" fill="#4a3c85" clip-rule="evenodd"/></clipPath><clipPath id="dd"><path data-name="Path 6001" d="M13-52a13 13 0 0013-13 13 13 0 00-13-13A13 13 0 000-65a13 13 0 0013 13z" fill="#4a3c85" clip-rule="evenodd"/></clipPath><clipPath id="de"><path data-name="Path 6003" d="M338-130a2 2 0 012 2v38a2 2 0 01-2 2H15a2 2 0 01-2-2v-38a2 2 0 012-2zm-206 10H70a11 11 0 00-11 11 11 11 0 0011 11h62a11 11 0 0011-11 11 11 0 00-11-11z" fill="#4a3c85" clip-rule="evenodd"/></clipPath><clipPath id="df"><path data-name="Path 6005" d="M13-96a13 13 0 0013-13 13 13 0 00-13-13 13 13 0 00-13 13 13 13 0 0013 13z" fill="#4a3c85" clip-rule="evenodd"/></clipPath><clipPath id="dg"><path data-name="Path 6007" d="M338-42a2 2 0 012 2v38a2 2 0 01-2 2H15a2 2 0 01-2-2v-38a2 2 0 012-2zM214-32h-62a11 11 0 00-11 11 11 11 0 0011 11h62a11 11 0 0011-11 11 11 0 00-11-11z" fill="#4a3c85" clip-rule="evenodd"/></clipPath><clipPath id="dh"><path data-name="Path 6009" d="M13-8a13 13 0 0013-13 13 13 0 00-13-13A13 13 0 000-21 13 13 0 0013-8z" fill="#4a3c85" clip-rule="evenodd"/></clipPath></defs><g data-name="Group 8445" transform="translate(0 174)" clip-path="url(#da)"><path data-name="Path 5994" d="M8-127h337v-52H8z" fill="#4a3c85"/></g><g data-name="Group 8446" transform="translate(0 174)" clip-path="url(#db)"><path data-name="Path 5996" d="M-5-135h36v-36H-5z" fill="#4a3c85"/></g><g data-name="Group 8447" transform="translate(0 174)" clip-path="url(#dc)"><path data-name="Path 5998" d="M8-39h337v-52H8z" fill="#4a3c85"/></g><g data-name="Group 8448" transform="translate(0 174)" clip-path="url(#dd)"><path data-name="Path 6000" d="M-5-47h36v-36H-5z" fill="#4a3c85"/></g><g data-name="Group 8449" transform="translate(0 174)" clip-path="url(#de)"><path data-name="Path 6002" d="M8-83h337v-52H8z" fill="#4a3c85"/></g><g data-name="Group 8450" transform="translate(0 174)" clip-path="url(#df)"><path data-name="Path 6004" d="M-5-91h36v-36H-5z" fill="#4a3c85"/></g><g data-name="Group 8451" transform="translate(0 174)" clip-path="url(#dg)"><path data-name="Path 6006" d="M8 5h337v-52H8z" fill="#4a3c85"/></g><g data-name="Group 8452" transform="translate(0 174)" clip-path="url(#dh)"><path data-name="Path 6008" d="M-5-3h36v-36H-5z" fill="#4a3c85"/></g></svg><svg width="340" height="42" viewBox="0 0 340 42" id="L2hvbWUvdWJ1bnR1L3dvcmtzcGFjZS9kaWdpdF9yZWFkaW5nLWNvbXBfcmVsZWFzZS0xMi42L3NyYy9yZW5kZXJlcnMvc21fdDFfczEvaW1nL3JjNjhfc2NfaW5mb18uc3Zn" y="174" xmlns="http://www.w3.org/2000/svg"><defs><clipPath id="ea"><path data-name="Path 5987" d="M338-42a2 2 0 012 2v38a2 2 0 01-2 2H15a2 2 0 01-2-2v-38a2 2 0 012-2zm-85 10H101a11 11 0 00-11 11 11 11 0 0011 11h152a11 11 0 0011-11 11 11 0 00-11-11z" fill="none" clip-rule="evenodd"/></clipPath><clipPath id="eb"><path data-name="Path 5989" d="M13-8a13 13 0 0013-13 13 13 0 00-13-13A13 13 0 000-21 13 13 0 0013-8z" fill="none" clip-rule="evenodd"/></clipPath></defs><g data-name="Group 8439" transform="translate(0 42)" clip-path="url(#ea)"><path data-name="Path 5986" d="M8 5h337v-52H8z" fill="#3a539a"/></g><g data-name="Group 8440" transform="translate(0 42)" clip-path="url(#eb)"><path data-name="Path 5988" d="M-5-3h36v-36H-5z" fill="#3a539a"/></g></svg><svg width="340" height="42" viewBox="0 0 340 42" id="L2hvbWUvdWJ1bnR1L3dvcmtzcGFjZS9kaWdpdF9yZWFkaW5nLWNvbXBfcmVsZWFzZS0xMi42L3NyYy9yZW5kZXJlcnMvc21fdDFfczEvaW1nL3JjNjhfc2NfaW5mb19xdWl6LnN2Zw==" x="340" y="174" xmlns="http://www.w3.org/2000/svg"><defs><clipPath id="fa"><path data-name="Path 5987" d="M338-42a2 2 0 012 2v38a2 2 0 01-2 2H15a2 2 0 01-2-2v-38a2 2 0 012-2zm-85 10H101a11 11 0 00-11 11 11 11 0 0011 11h152a11 11 0 0011-11 11 11 0 00-11-11z" fill="#4a3c85" clip-rule="evenodd"/></clipPath><clipPath id="fb"><path data-name="Path 5989" d="M13-8a13 13 0 0013-13 13 13 0 00-13-13A13 13 0 000-21 13 13 0 0013-8z" fill="#4a3c85" clip-rule="evenodd"/></clipPath></defs><g data-name="Group 8439" transform="translate(0 42)" clip-path="url(#fa)"><path data-name="Path 5986" d="M8 5h337v-52H8z" fill="#4a3c85"/></g><g data-name="Group 8440" transform="translate(0 42)" clip-path="url(#fb)"><path data-name="Path 5988" d="M-5-3h36v-36H-5z" fill="#4a3c85"/></g></svg><svg width="340" height="69" viewBox="0 0 340 69" id="L2hvbWUvdWJ1bnR1L3dvcmtzcGFjZS9kaWdpdF9yZWFkaW5nLWNvbXBfcmVsZWFzZS0xMi42L3NyYy9yZW5kZXJlcnMvc21fdDFfczEvaW1nL3JjNjhfcnN0X2luZm9fLnN2Zw==" y="216" xmlns="http://www.w3.org/2000/svg"><defs><clipPath id="ga"><path data-name="Path 5991" d="M338-69a2 2 0 012 2v65a2 2 0 01-2 2H15a2 2 0 01-2-2v-65a2 2 0 012-2zM118-32H56a11 11 0 00-11 11 11 11 0 0011 11h62a11 11 0 0011-11 11 11 0 00-11-11zm89 0h-62a11 11 0 00-11 11 11 11 0 0011 11h62a11 11 0 0011-11 11 11 0 00-11-11zm0-27h-62a11 11 0 00-11 11 11 11 0 0011 11h62a11 11 0 0011-11 11 11 0 00-11-11zm89 0h-62a11 11 0 00-11 11 11 11 0 0011 11h62a11 11 0 0011-11 11 11 0 00-11-11z" fill="none" clip-rule="evenodd"/></clipPath><clipPath id="gb"><path data-name="Path 5993" d="M13-21a13 13 0 0013-13 13 13 0 00-13-13A13 13 0 000-34a13 13 0 0013 13z" fill="none" clip-rule="evenodd"/></clipPath></defs><g data-name="Group 8441" transform="translate(0 69)" clip-path="url(#ga)"><path data-name="Path 5990" d="M8 5h337v-79H8z" fill="#3a539a"/></g><g data-name="Group 8442" transform="translate(0 69)" clip-path="url(#gb)"><path data-name="Path 5992" d="M-5-16h36v-36H-5z" fill="#3a539a"/></g></svg><svg width="340" height="69" viewBox="0 0 340 69" id="L2hvbWUvdWJ1bnR1L3dvcmtzcGFjZS9kaWdpdF9yZWFkaW5nLWNvbXBfcmVsZWFzZS0xMi42L3NyYy9yZW5kZXJlcnMvc21fdDFfczEvaW1nL3JjNjhfcnN0X2luZm9fcXVpei5zdmc=" x="340" y="216" xmlns="http://www.w3.org/2000/svg"><defs><clipPath id="ha"><path data-name="Path 5991" d="M338-69a2 2 0 012 2v65a2 2 0 01-2 2H15a2 2 0 01-2-2v-65a2 2 0 012-2zM118-32H56a11 11 0 00-11 11 11 11 0 0011 11h62a11 11 0 0011-11 11 11 0 00-11-11zm89 0h-62a11 11 0 00-11 11 11 11 0 0011 11h62a11 11 0 0011-11 11 11 0 00-11-11zm0-27h-62a11 11 0 00-11 11 11 11 0 0011 11h62a11 11 0 0011-11 11 11 0 00-11-11zm89 0h-62a11 11 0 00-11 11 11 11 0 0011 11h62a11 11 0 0011-11 11 11 0 00-11-11z" fill="#4a3c85" clip-rule="evenodd"/></clipPath><clipPath id="hb"><path data-name="Path 5993" d="M13-21a13 13 0 0013-13 13 13 0 00-13-13A13 13 0 000-34a13 13 0 0013 13z" fill="#4a3c85" clip-rule="evenodd"/></clipPath></defs><g data-name="Group 8441" transform="translate(0 69)" clip-path="url(#ha)"><path data-name="Path 5990" d="M8 5h337v-79H8z" fill="#4a3c85"/></g><g data-name="Group 8442" transform="translate(0 69)" clip-path="url(#hb)"><path data-name="Path 5992" d="M-5-16h36v-36H-5z" fill="#4a3c85"/></g></svg></svg>