<?xml version="1.0" encoding="utf-8"?><svg width="1338" height="1098" viewBox="0 0 1338 1098" xmlns="http://www.w3.org/2000/svg" xmlns:xlink="http://www.w3.org/1999/xlink"><svg width="335" height="60" viewBox="0 0 335 60" id="L2hvbWUvdWJ1bnR1L3dvcmtzcGFjZS9kaWdpdF9yZWFkaW5nLWNvbXBfcmVsZWFzZS0xMi42L3NyYy9yZW5kZXJlcnMvZ29fdDVfczEvaW1nL3JjNjhfZ29faW5mb18yeDFfMV9pcC5zdmc=" xmlns="http://www.w3.org/2000/svg"><defs><clipPath id="aa"><path d="M165.994-59V1H.5v-60zm-10.03 10.678H10.53v39.661h145.434zM83.372-21.389a2.241 2.241 0 011.661.683 2.305 2.305 0 01.674 1.684A2.234 2.234 0 0185-17.273a2.361 2.361 0 01-1.63.636 2.446 2.446 0 01-1.669-.628 2.216 2.216 0 01-.713-1.756 2.278 2.278 0 01.69-1.684 2.312 2.312 0 011.694-.684zm.376-19.306a9.028 9.028 0 014.012.85 6.531 6.531 0 012.688 2.312 5.727 5.727 0 01.948 3.178 4.97 4.97 0 01-.541 2.368 7.24 7.24 0 01-1.285 1.756q-.744.739-2.672 2.487a10.956 10.956 0 00-.854.866 3.519 3.519 0 00-.478.683 3.38 3.38 0 00-.243.62q-.086.31-.259 1.088a1.752 1.752 0 01-1.864 1.652 1.892 1.892 0 01-1.371-.54 2.139 2.139 0 01-.556-1.6 5.984 5.984 0 01.407-2.312 5.879 5.879 0 011.081-1.716 24.965 24.965 0 011.818-1.756q1-.89 1.45-1.343a4.552 4.552 0 00.752-1.009 2.467 2.467 0 00.306-1.208 2.826 2.826 0 00-.932-2.145 3.376 3.376 0 00-2.406-.874 3.3 3.3 0 00-2.539.882 7.061 7.061 0 00-1.379 2.6q-.533 1.8-2.022 1.8a1.974 1.974 0 01-1.481-.628 1.932 1.932 0 01-.6-1.359 5.8 5.8 0 01.956-3.059 7.4 7.4 0 012.79-2.566 8.679 8.679 0 014.275-1.027z" transform="translate(-.5 59)" fill="none" clip-rule="evenodd"/></clipPath><clipPath id="ab"><path d="M169.5-59h165.494V1H169.5z" transform="translate(-169.5 59)" fill="none" clip-rule="evenodd"/></clipPath></defs><g clip-path="url(#aa)"><path d="M-5.015 65.084h175.524V-5.085H-5.015z" fill="#3a539a"/></g><g transform="translate(169.506)" clip-path="url(#ab)"><path d="M-5.015 65.084h175.524V-5.085H-5.015z" fill="#3a539a"/></g></svg><svg width="335" height="60" viewBox="0 0 335 60" id="L2hvbWUvdWJ1bnR1L3dvcmtzcGFjZS9kaWdpdF9yZWFkaW5nLWNvbXBfcmVsZWFzZS0xMi42L3NyYy9yZW5kZXJlcnMvZ29fdDVfczEvaW1nL3JjNjhfZ29faW5mb18yeDFfMV9xdWl6LnN2Zw==" y="60" xmlns="http://www.w3.org/2000/svg"><defs><clipPath id="ba"><path d="M165.994-59V1H.5v-60zm-10.03 10.678H10.53v39.661h145.434zM83.372-21.389a2.241 2.241 0 011.661.683 2.305 2.305 0 01.674 1.684A2.234 2.234 0 0185-17.273a2.361 2.361 0 01-1.63.636 2.446 2.446 0 01-1.669-.628 2.216 2.216 0 01-.713-1.756 2.278 2.278 0 01.69-1.684 2.312 2.312 0 011.694-.684zm.376-19.306a9.028 9.028 0 014.012.85 6.531 6.531 0 012.688 2.312 5.727 5.727 0 01.948 3.178 4.97 4.97 0 01-.541 2.368 7.24 7.24 0 01-1.285 1.756q-.744.739-2.672 2.487a10.956 10.956 0 00-.854.866 3.519 3.519 0 00-.478.683 3.38 3.38 0 00-.243.62q-.086.31-.259 1.088a1.752 1.752 0 01-1.864 1.652 1.892 1.892 0 01-1.371-.54 2.139 2.139 0 01-.556-1.6 5.984 5.984 0 01.407-2.312 5.879 5.879 0 011.081-1.716 24.965 24.965 0 011.818-1.756q1-.89 1.45-1.343a4.552 4.552 0 00.752-1.009 2.467 2.467 0 00.306-1.208 2.826 2.826 0 00-.932-2.145 3.376 3.376 0 00-2.406-.874 3.3 3.3 0 00-2.539.882 7.061 7.061 0 00-1.379 2.6q-.533 1.8-2.022 1.8a1.974 1.974 0 01-1.481-.628 1.932 1.932 0 01-.6-1.359 5.8 5.8 0 01.956-3.059 7.4 7.4 0 012.79-2.566 8.679 8.679 0 014.275-1.027z" transform="translate(-.5 59)" fill="#4a3c85" clip-rule="evenodd"/></clipPath><clipPath id="bb"><path d="M169.5-59h165.494V1H169.5z" transform="translate(-169.5 59)" fill="#4a3c85" clip-rule="evenodd"/></clipPath></defs><g clip-path="url(#ba)"><path d="M-5.015 65.084h175.524V-5.085H-5.015z" fill="#4a3c85"/></g><g transform="translate(169.506)" clip-path="url(#bb)"><path d="M-5.015 65.084h175.524V-5.085H-5.015z" fill="#4a3c85"/></g></svg><svg width="335" height="60" viewBox="0 0 335 60" id="L2hvbWUvdWJ1bnR1L3dvcmtzcGFjZS9kaWdpdF9yZWFkaW5nLWNvbXBfcmVsZWFzZS0xMi42L3NyYy9yZW5kZXJlcnMvZ29fdDVfczEvaW1nL3JjNjhfZ29faW5mb18yeDFfMl9pcC5zdmc=" y="120" xmlns="http://www.w3.org/2000/svg"><defs><clipPath id="ca"><path d="M335.5-60V0H170.006v-60zm-10.03 10.678H180.036v39.661H325.47zm-72.592 26.933a2.242 2.242 0 011.661.683 2.305 2.305 0 01.674 1.684 2.234 2.234 0 01-.705 1.748 2.361 2.361 0 01-1.63.636 2.446 2.446 0 01-1.669-.628 2.216 2.216 0 01-.713-1.756 2.278 2.278 0 01.689-1.684 2.312 2.312 0 011.693-.683zm.376-19.306a9.029 9.029 0 014.012.85 6.531 6.531 0 012.688 2.312 5.727 5.727 0 01.948 3.178 4.969 4.969 0 01-.541 2.368 7.24 7.24 0 01-1.285 1.756q-.744.739-2.672 2.487a10.961 10.961 0 00-.854.866 3.518 3.518 0 00-.478.683 3.381 3.381 0 00-.243.62q-.086.31-.259 1.088a1.752 1.752 0 01-1.865 1.653 1.892 1.892 0 01-1.371-.54 2.14 2.14 0 01-.556-1.6 5.985 5.985 0 01.408-2.312 5.88 5.88 0 011.081-1.716 24.951 24.951 0 011.818-1.756q1-.89 1.45-1.343a4.553 4.553 0 00.752-1.009 2.467 2.467 0 00.306-1.208 2.826 2.826 0 00-.932-2.145 3.376 3.376 0 00-2.406-.874 3.3 3.3 0 00-2.539.882 7.062 7.062 0 00-1.379 2.6q-.533 1.8-2.022 1.8a1.974 1.974 0 01-1.481-.628 1.932 1.932 0 01-.6-1.359 5.8 5.8 0 01.956-3.059 7.4 7.4 0 012.79-2.566 8.679 8.679 0 014.275-1.028z" fill="none" clip-rule="evenodd"/></clipPath><clipPath id="cb"><path d="M.5-60h165.494V0H.5z" fill="none" clip-rule="evenodd"/></clipPath></defs><g transform="translate(-.5 60)" clip-path="url(#ca)"><path d="M165.006 5H340.5v-70H165.006z" fill="#3a539a"/></g><g transform="translate(-.5 60)" clip-path="url(#cb)"><path d="M-4.5 5h175.494v-70H-4.5z" fill="#3a539a"/></g></svg><svg width="335" height="60" viewBox="0 0 335 60" id="L2hvbWUvdWJ1bnR1L3dvcmtzcGFjZS9kaWdpdF9yZWFkaW5nLWNvbXBfcmVsZWFzZS0xMi42L3NyYy9yZW5kZXJlcnMvZ29fdDVfczEvaW1nL3JjNjhfZ29faW5mb18yeDFfMl9xdWl6LnN2Zw==" y="180" xmlns="http://www.w3.org/2000/svg"><defs><clipPath id="da"><path d="M335.5-60V0H170.006v-60zm-10.03 10.678H180.036v39.661H325.47zm-72.592 26.933a2.242 2.242 0 011.661.683 2.305 2.305 0 01.674 1.684 2.234 2.234 0 01-.705 1.748 2.361 2.361 0 01-1.63.636 2.446 2.446 0 01-1.669-.628 2.216 2.216 0 01-.713-1.756 2.278 2.278 0 01.689-1.684 2.312 2.312 0 011.693-.683zm.376-19.306a9.029 9.029 0 014.012.85 6.531 6.531 0 012.688 2.312 5.727 5.727 0 01.948 3.178 4.969 4.969 0 01-.541 2.368 7.24 7.24 0 01-1.285 1.756q-.744.739-2.672 2.487a10.961 10.961 0 00-.854.866 3.518 3.518 0 00-.478.683 3.381 3.381 0 00-.243.62q-.086.31-.259 1.088a1.752 1.752 0 01-1.865 1.653 1.892 1.892 0 01-1.371-.54 2.14 2.14 0 01-.556-1.6 5.985 5.985 0 01.408-2.312 5.88 5.88 0 011.081-1.716 24.951 24.951 0 011.818-1.756q1-.89 1.45-1.343a4.553 4.553 0 00.752-1.009 2.467 2.467 0 00.306-1.208 2.826 2.826 0 00-.932-2.145 3.376 3.376 0 00-2.406-.874 3.3 3.3 0 00-2.539.882 7.062 7.062 0 00-1.379 2.6q-.533 1.8-2.022 1.8a1.974 1.974 0 01-1.481-.628 1.932 1.932 0 01-.6-1.359 5.8 5.8 0 01.956-3.059 7.4 7.4 0 012.79-2.566 8.679 8.679 0 014.275-1.028z" fill="#4a3c85" clip-rule="evenodd"/></clipPath><clipPath id="db"><path d="M.5-60h165.494V0H.5z" fill="#4a3c85" clip-rule="evenodd"/></clipPath></defs><g transform="translate(-.5 60)" clip-path="url(#da)"><path d="M165.006 5H340.5v-70H165.006z" fill="#4a3c85"/></g><g transform="translate(-.5 60)" clip-path="url(#db)"><path d="M-4.5 5h175.494v-70H-4.5z" fill="#4a3c85"/></g></svg><svg width="334" height="183" viewBox="0 0 334 183" id="L2hvbWUvdWJ1bnR1L3dvcmtzcGFjZS9kaWdpdF9yZWFkaW5nLWNvbXBfcmVsZWFzZS0xMi42L3NyYy9yZW5kZXJlcnMvZ29fdDVfczEvaW1nL3JjNjhfZ29faW5mb18yeDNfMV9pcC5zdmc=" x="670" xmlns="http://www.w3.org/2000/svg"><defs><clipPath id="ea"><path d="M165-59V0H0v-59zm-10 10.5H10v39h145zM82.625-22.016a2.251 2.251 0 011.656.672 2.251 2.251 0 01.672 1.656 2.181 2.181 0 01-.7 1.719 2.373 2.373 0 01-1.625.625 2.459 2.459 0 01-1.664-.617 2.165 2.165 0 01-.711-1.727 2.225 2.225 0 01.688-1.656 2.322 2.322 0 011.684-.672zM83-41a9.107 9.107 0 014 .836 6.486 6.486 0 012.68 2.273 5.576 5.576 0 01.945 3.125 4.832 4.832 0 01-.539 2.328 7.125 7.125 0 01-1.286 1.727q-.742.727-2.664 2.445a10.846 10.846 0 00-.852.852 3.46 3.46 0 00-.477.672 3.3 3.3 0 00-.242.609q-.086.3-.258 1.07a1.739 1.739 0 01-1.859 1.625 1.9 1.9 0 01-1.367-.531 2.087 2.087 0 01-.555-1.578 5.813 5.813 0 01.406-2.273 5.771 5.771 0 011.078-1.687 24.739 24.739 0 011.813-1.727q1-.875 1.445-1.32a4.481 4.481 0 00.75-.992 2.4 2.4 0 00.3-1.187 2.761 2.761 0 00-.93-2.109A3.394 3.394 0 0083-37.7a3.318 3.318 0 00-2.531.867 6.914 6.914 0 00-1.375 2.555q-.531 1.766-2.016 1.766a1.982 1.982 0 01-1.477-.617 1.888 1.888 0 01-.6-1.336 5.649 5.649 0 01.953-3.008A7.339 7.339 0 0178.734-40 8.75 8.75 0 0183-41z" fill="none" clip-rule="evenodd"/></clipPath><clipPath id="eb"><path d="M165-121v59H0v-59zm-10 10.5H10v39h145zM82.625-84.016a2.251 2.251 0 011.656.672 2.251 2.251 0 01.672 1.656 2.181 2.181 0 01-.7 1.719 2.373 2.373 0 01-1.625.625 2.459 2.459 0 01-1.664-.617 2.165 2.165 0 01-.711-1.727 2.225 2.225 0 01.688-1.656 2.322 2.322 0 011.684-.672zM83-103a9.107 9.107 0 014 .836 6.486 6.486 0 012.68 2.273 5.576 5.576 0 01.945 3.125 4.832 4.832 0 01-.539 2.328 7.126 7.126 0 01-1.286 1.727q-.742.727-2.664 2.445a10.846 10.846 0 00-.852.852 3.459 3.459 0 00-.477.672 3.3 3.3 0 00-.242.609q-.086.3-.258 1.07a1.739 1.739 0 01-1.859 1.625 1.9 1.9 0 01-1.367-.531 2.087 2.087 0 01-.555-1.578 5.813 5.813 0 01.406-2.273 5.771 5.771 0 011.078-1.687 24.74 24.74 0 011.813-1.727q1-.875 1.445-1.32a4.481 4.481 0 00.75-.992 2.4 2.4 0 00.3-1.187 2.761 2.761 0 00-.93-2.109A3.394 3.394 0 0083-99.7a3.318 3.318 0 00-2.531.867 6.914 6.914 0 00-1.375 2.555q-.531 1.766-2.016 1.766a1.982 1.982 0 01-1.477-.617 1.888 1.888 0 01-.6-1.336 5.649 5.649 0 01.953-3.008 7.339 7.339 0 012.78-2.527A8.75 8.75 0 0183-103z" fill="none" clip-rule="evenodd"/></clipPath><clipPath id="ec"><path d="M165-183v59H0v-59zm-10 10.5H10v39h145zm-72.375 26.484a2.251 2.251 0 011.656.672 2.251 2.251 0 01.672 1.656 2.181 2.181 0 01-.7 1.719 2.372 2.372 0 01-1.625.625 2.459 2.459 0 01-1.664-.617 2.165 2.165 0 01-.711-1.727 2.225 2.225 0 01.688-1.656 2.322 2.322 0 011.684-.672zM83-165a9.107 9.107 0 014 .836 6.486 6.486 0 012.68 2.273 5.576 5.576 0 01.945 3.125 4.832 4.832 0 01-.539 2.328 7.125 7.125 0 01-1.281 1.727q-.742.726-2.664 2.445a10.841 10.841 0 00-.852.852 3.461 3.461 0 00-.477.672 3.3 3.3 0 00-.242.609q-.086.3-.258 1.07a1.739 1.739 0 01-1.859 1.625 1.9 1.9 0 01-1.367-.531 2.087 2.087 0 01-.555-1.578 5.813 5.813 0 01.406-2.273 5.771 5.771 0 011.078-1.687 24.739 24.739 0 011.813-1.727q1-.875 1.445-1.32a4.481 4.481 0 00.75-.992 2.4 2.4 0 00.3-1.187 2.761 2.761 0 00-.93-2.109A3.394 3.394 0 0083-161.7a3.318 3.318 0 00-2.531.867 6.914 6.914 0 00-1.375 2.555q-.531 1.766-2.016 1.766a1.982 1.982 0 01-1.477-.617 1.888 1.888 0 01-.6-1.336 5.649 5.649 0 01.953-3.008 7.339 7.339 0 012.78-2.527A8.75 8.75 0 0183-165z" fill="none" clip-rule="evenodd"/></clipPath><clipPath id="ed"><path d="M169-183h165v59H169z" fill="none" clip-rule="evenodd"/></clipPath><clipPath id="ee"><path d="M169-121h165v59H169z" fill="none" clip-rule="evenodd"/></clipPath><clipPath id="ef"><path d="M169-59h165V0H169z" fill="none" clip-rule="evenodd"/></clipPath></defs><g transform="translate(0 183)" clip-path="url(#ea)"><path d="M-5 5h175v-69H-5z" fill="#3a539a"/></g><g transform="translate(0 183)" clip-path="url(#eb)"><path d="M-5-57h175v-69H-5z" fill="#3a539a"/></g><g transform="translate(0 183)" clip-path="url(#ec)"><path d="M-5-119h175v-69H-5z" fill="#3a539a"/></g><g transform="translate(0 183)" clip-path="url(#ed)"><path d="M164-119h175v-69H164z" fill="#3a539a"/></g><g transform="translate(0 183)" clip-path="url(#ee)"><path d="M164-57h175v-69H164z" fill="#3a539a"/></g><g transform="translate(0 183)" clip-path="url(#ef)"><path d="M164 5h175v-69H164z" fill="#3a539a"/></g></svg><svg width="334" height="183" viewBox="0 0 334 183" id="L2hvbWUvdWJ1bnR1L3dvcmtzcGFjZS9kaWdpdF9yZWFkaW5nLWNvbXBfcmVsZWFzZS0xMi42L3NyYy9yZW5kZXJlcnMvZ29fdDVfczEvaW1nL3JjNjhfZ29faW5mb18yeDNfMV9xdWl6LnN2Zw==" x="670" y="183" xmlns="http://www.w3.org/2000/svg"><defs><clipPath id="fa"><path d="M165-59V0H0v-59zm-10 10.5H10v39h145zM82.625-22.016a2.251 2.251 0 011.656.672 2.251 2.251 0 01.672 1.656 2.181 2.181 0 01-.7 1.719 2.373 2.373 0 01-1.625.625 2.459 2.459 0 01-1.664-.617 2.165 2.165 0 01-.711-1.727 2.225 2.225 0 01.688-1.656 2.322 2.322 0 011.684-.672zM83-41a9.107 9.107 0 014 .836 6.486 6.486 0 012.68 2.273 5.576 5.576 0 01.945 3.125 4.832 4.832 0 01-.539 2.328 7.125 7.125 0 01-1.286 1.727q-.742.727-2.664 2.445a10.846 10.846 0 00-.852.852 3.46 3.46 0 00-.477.672 3.3 3.3 0 00-.242.609q-.086.3-.258 1.07a1.739 1.739 0 01-1.859 1.625 1.9 1.9 0 01-1.367-.531 2.087 2.087 0 01-.555-1.578 5.813 5.813 0 01.406-2.273 5.771 5.771 0 011.078-1.687 24.739 24.739 0 011.813-1.727q1-.875 1.445-1.32a4.481 4.481 0 00.75-.992 2.4 2.4 0 00.3-1.187 2.761 2.761 0 00-.93-2.109A3.394 3.394 0 0083-37.7a3.318 3.318 0 00-2.531.867 6.914 6.914 0 00-1.375 2.555q-.531 1.766-2.016 1.766a1.982 1.982 0 01-1.477-.617 1.888 1.888 0 01-.6-1.336 5.649 5.649 0 01.953-3.008A7.339 7.339 0 0178.734-40 8.75 8.75 0 0183-41z" fill="#4a3c85" clip-rule="evenodd"/></clipPath><clipPath id="fb"><path d="M165-121v59H0v-59zm-10 10.5H10v39h145zM82.625-84.016a2.251 2.251 0 011.656.672 2.251 2.251 0 01.672 1.656 2.181 2.181 0 01-.7 1.719 2.373 2.373 0 01-1.625.625 2.459 2.459 0 01-1.664-.617 2.165 2.165 0 01-.711-1.727 2.225 2.225 0 01.688-1.656 2.322 2.322 0 011.684-.672zM83-103a9.107 9.107 0 014 .836 6.486 6.486 0 012.68 2.273 5.576 5.576 0 01.945 3.125 4.832 4.832 0 01-.539 2.328 7.126 7.126 0 01-1.286 1.727q-.742.727-2.664 2.445a10.846 10.846 0 00-.852.852 3.459 3.459 0 00-.477.672 3.3 3.3 0 00-.242.609q-.086.3-.258 1.07a1.739 1.739 0 01-1.859 1.625 1.9 1.9 0 01-1.367-.531 2.087 2.087 0 01-.555-1.578 5.813 5.813 0 01.406-2.273 5.771 5.771 0 011.078-1.687 24.74 24.74 0 011.813-1.727q1-.875 1.445-1.32a4.481 4.481 0 00.75-.992 2.4 2.4 0 00.3-1.187 2.761 2.761 0 00-.93-2.109A3.394 3.394 0 0083-99.7a3.318 3.318 0 00-2.531.867 6.914 6.914 0 00-1.375 2.555q-.531 1.766-2.016 1.766a1.982 1.982 0 01-1.477-.617 1.888 1.888 0 01-.6-1.336 5.649 5.649 0 01.953-3.008 7.339 7.339 0 012.78-2.527A8.75 8.75 0 0183-103z" fill="#4a3c85" clip-rule="evenodd"/></clipPath><clipPath id="fc"><path d="M165-183v59H0v-59zm-10 10.5H10v39h145zm-72.375 26.484a2.251 2.251 0 011.656.672 2.251 2.251 0 01.672 1.656 2.181 2.181 0 01-.7 1.719 2.372 2.372 0 01-1.625.625 2.459 2.459 0 01-1.664-.617 2.165 2.165 0 01-.711-1.727 2.225 2.225 0 01.688-1.656 2.322 2.322 0 011.684-.672zM83-165a9.107 9.107 0 014 .836 6.486 6.486 0 012.68 2.273 5.576 5.576 0 01.945 3.125 4.832 4.832 0 01-.539 2.328 7.125 7.125 0 01-1.281 1.727q-.742.726-2.664 2.445a10.841 10.841 0 00-.852.852 3.461 3.461 0 00-.477.672 3.3 3.3 0 00-.242.609q-.086.3-.258 1.07a1.739 1.739 0 01-1.859 1.625 1.9 1.9 0 01-1.367-.531 2.087 2.087 0 01-.555-1.578 5.813 5.813 0 01.406-2.273 5.771 5.771 0 011.078-1.687 24.739 24.739 0 011.813-1.727q1-.875 1.445-1.32a4.481 4.481 0 00.75-.992 2.4 2.4 0 00.3-1.187 2.761 2.761 0 00-.93-2.109A3.394 3.394 0 0083-161.7a3.318 3.318 0 00-2.531.867 6.914 6.914 0 00-1.375 2.555q-.531 1.766-2.016 1.766a1.982 1.982 0 01-1.477-.617 1.888 1.888 0 01-.6-1.336 5.649 5.649 0 01.953-3.008 7.339 7.339 0 012.78-2.527A8.75 8.75 0 0183-165z" fill="#4a3c85" clip-rule="evenodd"/></clipPath><clipPath id="fd"><path d="M169-183h165v59H169z" fill="#4a3c85" clip-rule="evenodd"/></clipPath><clipPath id="fe"><path d="M169-121h165v59H169z" fill="#4a3c85" clip-rule="evenodd"/></clipPath><clipPath id="ff"><path d="M169-59h165V0H169z" fill="#4a3c85" clip-rule="evenodd"/></clipPath></defs><g transform="translate(0 183)" clip-path="url(#fa)"><path d="M-5 5h175v-69H-5z" fill="#4a3c85"/></g><g transform="translate(0 183)" clip-path="url(#fb)"><path d="M-5-57h175v-69H-5z" fill="#4a3c85"/></g><g transform="translate(0 183)" clip-path="url(#fc)"><path d="M-5-119h175v-69H-5z" fill="#4a3c85"/></g><g transform="translate(0 183)" clip-path="url(#fd)"><path d="M164-119h175v-69H164z" fill="#4a3c85"/></g><g transform="translate(0 183)" clip-path="url(#fe)"><path d="M164-57h175v-69H164z" fill="#4a3c85"/></g><g transform="translate(0 183)" clip-path="url(#ff)"><path d="M164 5h175v-69H164z" fill="#4a3c85"/></g></svg><svg width="334" height="183" viewBox="0 0 334 183" id="L2hvbWUvdWJ1bnR1L3dvcmtzcGFjZS9kaWdpdF9yZWFkaW5nLWNvbXBfcmVsZWFzZS0xMi42L3NyYy9yZW5kZXJlcnMvZ29fdDVfczEvaW1nL3JjNjhfZ29faW5mb18yeDNfMl9pcC5zdmc=" x="670" y="366" xmlns="http://www.w3.org/2000/svg"><defs><clipPath id="ga"><path d="M334-59V0H169v-59zm-10 10.5H179v39h145zm-72.375 26.484a2.25 2.25 0 011.656.672 2.25 2.25 0 01.672 1.656 2.181 2.181 0 01-.7 1.719 2.373 2.373 0 01-1.625.625 2.459 2.459 0 01-1.664-.617 2.165 2.165 0 01-.711-1.727 2.225 2.225 0 01.688-1.656 2.322 2.322 0 011.684-.672zM252-41a9.107 9.107 0 014 .836 6.486 6.486 0 012.68 2.273 5.576 5.576 0 01.945 3.125 4.832 4.832 0 01-.539 2.328 7.123 7.123 0 01-1.281 1.727q-.742.727-2.664 2.445a10.846 10.846 0 00-.852.852 3.459 3.459 0 00-.477.672 3.3 3.3 0 00-.242.609q-.086.3-.258 1.07a1.739 1.739 0 01-1.859 1.625 1.9 1.9 0 01-1.367-.531 2.087 2.087 0 01-.555-1.578 5.814 5.814 0 01.406-2.273 5.77 5.77 0 011.078-1.687 24.74 24.74 0 011.813-1.727q1-.875 1.445-1.32a4.48 4.48 0 00.75-.992 2.4 2.4 0 00.3-1.187 2.761 2.761 0 00-.93-2.109A3.394 3.394 0 00252-37.7a3.318 3.318 0 00-2.531.867 6.914 6.914 0 00-1.375 2.555q-.531 1.766-2.016 1.766a1.982 1.982 0 01-1.477-.617 1.887 1.887 0 01-.6-1.336 5.649 5.649 0 01.953-3.008 7.339 7.339 0 012.78-2.527A8.75 8.75 0 01252-41z" fill="none" clip-rule="evenodd"/></clipPath><clipPath id="gb"><path d="M334-121v59H169v-59zm-10 10.5H179v39h145zm-72.375 26.484a2.25 2.25 0 011.656.672 2.25 2.25 0 01.672 1.656 2.181 2.181 0 01-.7 1.719 2.373 2.373 0 01-1.625.625 2.459 2.459 0 01-1.664-.617 2.165 2.165 0 01-.711-1.727 2.225 2.225 0 01.688-1.656 2.322 2.322 0 011.684-.672zM252-103a9.107 9.107 0 014 .836 6.486 6.486 0 012.68 2.273 5.576 5.576 0 01.945 3.125 4.832 4.832 0 01-.539 2.328 7.123 7.123 0 01-1.281 1.727q-.742.727-2.664 2.445a10.847 10.847 0 00-.852.852 3.459 3.459 0 00-.477.672 3.3 3.3 0 00-.242.609q-.086.3-.258 1.07a1.739 1.739 0 01-1.859 1.625 1.9 1.9 0 01-1.367-.531 2.087 2.087 0 01-.555-1.578 5.814 5.814 0 01.406-2.273 5.771 5.771 0 011.078-1.687 24.741 24.741 0 011.813-1.727q1-.875 1.445-1.32a4.481 4.481 0 00.75-.992 2.4 2.4 0 00.3-1.187 2.761 2.761 0 00-.93-2.109A3.394 3.394 0 00252-99.7a3.318 3.318 0 00-2.531.867 6.914 6.914 0 00-1.375 2.555q-.531 1.766-2.016 1.766a1.982 1.982 0 01-1.477-.617 1.887 1.887 0 01-.6-1.336 5.649 5.649 0 01.953-3.008 7.339 7.339 0 012.78-2.527 8.75 8.75 0 014.266-1z" fill="none" clip-rule="evenodd"/></clipPath><clipPath id="gc"><path d="M334-183v59H169v-59zm-10 10.5H179v39h145zm-72.375 26.484a2.25 2.25 0 011.656.672 2.25 2.25 0 01.672 1.656 2.181 2.181 0 01-.7 1.719 2.372 2.372 0 01-1.625.625 2.459 2.459 0 01-1.664-.617 2.165 2.165 0 01-.711-1.727 2.225 2.225 0 01.688-1.656 2.322 2.322 0 011.684-.672zM252-165a9.107 9.107 0 014 .836 6.486 6.486 0 012.68 2.273 5.576 5.576 0 01.945 3.125 4.832 4.832 0 01-.539 2.328 7.123 7.123 0 01-1.281 1.727q-.742.726-2.664 2.445a10.842 10.842 0 00-.852.852 3.46 3.46 0 00-.477.672 3.3 3.3 0 00-.242.609q-.086.3-.258 1.07a1.739 1.739 0 01-1.859 1.625 1.9 1.9 0 01-1.367-.531 2.087 2.087 0 01-.555-1.578 5.813 5.813 0 01.406-2.273 5.771 5.771 0 011.078-1.687 24.741 24.741 0 011.813-1.727q1-.875 1.445-1.32a4.481 4.481 0 00.75-.992 2.4 2.4 0 00.3-1.187 2.761 2.761 0 00-.93-2.109 3.394 3.394 0 00-2.4-.859 3.318 3.318 0 00-2.531.867 6.913 6.913 0 00-1.375 2.555q-.531 1.766-2.016 1.766a1.982 1.982 0 01-1.477-.617 1.888 1.888 0 01-.6-1.336 5.649 5.649 0 01.953-3.008 7.339 7.339 0 012.787-2.526 8.75 8.75 0 014.266-1z" fill="none" clip-rule="evenodd"/></clipPath><clipPath id="gd"><path d="M0-183h165v59H0z" fill="none" clip-rule="evenodd"/></clipPath><clipPath id="ge"><path d="M0-121h165v59H0z" fill="none" clip-rule="evenodd"/></clipPath><clipPath id="gf"><path d="M0-59h165V0H0z" fill="none" clip-rule="evenodd"/></clipPath></defs><g transform="translate(0 183)" clip-path="url(#ga)"><path d="M164 5h175v-69H164z" fill="#3a539a"/></g><g transform="translate(0 183)" clip-path="url(#gb)"><path d="M164-57h175v-69H164z" fill="#3a539a"/></g><g transform="translate(0 183)" clip-path="url(#gc)"><path d="M164-119h175v-69H164z" fill="#3a539a"/></g><g transform="translate(0 183)" clip-path="url(#gd)"><path d="M-5-119h175v-69H-5z" fill="#3a539a"/></g><g transform="translate(0 183)" clip-path="url(#ge)"><path d="M-5-57h175v-69H-5z" fill="#3a539a"/></g><g transform="translate(0 183)" clip-path="url(#gf)"><path d="M-5 5h175v-69H-5z" fill="#3a539a"/></g></svg><svg width="334" height="183" viewBox="0 0 334 183" id="L2hvbWUvdWJ1bnR1L3dvcmtzcGFjZS9kaWdpdF9yZWFkaW5nLWNvbXBfcmVsZWFzZS0xMi42L3NyYy9yZW5kZXJlcnMvZ29fdDVfczEvaW1nL3JjNjhfZ29faW5mb18yeDNfMl9xdWl6LnN2Zw==" y="670" xmlns="http://www.w3.org/2000/svg"><defs><clipPath id="ha"><path d="M334-59V0H169v-59zm-10 10.5H179v39h145zm-72.375 26.484a2.25 2.25 0 011.656.672 2.25 2.25 0 01.672 1.656 2.181 2.181 0 01-.7 1.719 2.373 2.373 0 01-1.625.625 2.459 2.459 0 01-1.664-.617 2.165 2.165 0 01-.711-1.727 2.225 2.225 0 01.688-1.656 2.322 2.322 0 011.684-.672zM252-41a9.107 9.107 0 014 .836 6.486 6.486 0 012.68 2.273 5.576 5.576 0 01.945 3.125 4.832 4.832 0 01-.539 2.328 7.123 7.123 0 01-1.281 1.727q-.742.727-2.664 2.445a10.846 10.846 0 00-.852.852 3.459 3.459 0 00-.477.672 3.3 3.3 0 00-.242.609q-.086.3-.258 1.07a1.739 1.739 0 01-1.859 1.625 1.9 1.9 0 01-1.367-.531 2.087 2.087 0 01-.555-1.578 5.814 5.814 0 01.406-2.273 5.77 5.77 0 011.078-1.687 24.74 24.74 0 011.813-1.727q1-.875 1.445-1.32a4.48 4.48 0 00.75-.992 2.4 2.4 0 00.3-1.187 2.761 2.761 0 00-.93-2.109A3.394 3.394 0 00252-37.7a3.318 3.318 0 00-2.531.867 6.914 6.914 0 00-1.375 2.555q-.531 1.766-2.016 1.766a1.982 1.982 0 01-1.477-.617 1.887 1.887 0 01-.6-1.336 5.649 5.649 0 01.953-3.008 7.339 7.339 0 012.78-2.527A8.75 8.75 0 01252-41z" fill="#4a3c85" clip-rule="evenodd"/></clipPath><clipPath id="hb"><path d="M334-121v59H169v-59zm-10 10.5H179v39h145zm-72.375 26.484a2.25 2.25 0 011.656.672 2.25 2.25 0 01.672 1.656 2.181 2.181 0 01-.7 1.719 2.373 2.373 0 01-1.625.625 2.459 2.459 0 01-1.664-.617 2.165 2.165 0 01-.711-1.727 2.225 2.225 0 01.688-1.656 2.322 2.322 0 011.684-.672zM252-103a9.107 9.107 0 014 .836 6.486 6.486 0 012.68 2.273 5.576 5.576 0 01.945 3.125 4.832 4.832 0 01-.539 2.328 7.123 7.123 0 01-1.281 1.727q-.742.727-2.664 2.445a10.847 10.847 0 00-.852.852 3.459 3.459 0 00-.477.672 3.3 3.3 0 00-.242.609q-.086.3-.258 1.07a1.739 1.739 0 01-1.859 1.625 1.9 1.9 0 01-1.367-.531 2.087 2.087 0 01-.555-1.578 5.814 5.814 0 01.406-2.273 5.771 5.771 0 011.078-1.687 24.741 24.741 0 011.813-1.727q1-.875 1.445-1.32a4.481 4.481 0 00.75-.992 2.4 2.4 0 00.3-1.187 2.761 2.761 0 00-.93-2.109A3.394 3.394 0 00252-99.7a3.318 3.318 0 00-2.531.867 6.914 6.914 0 00-1.375 2.555q-.531 1.766-2.016 1.766a1.982 1.982 0 01-1.477-.617 1.887 1.887 0 01-.6-1.336 5.649 5.649 0 01.953-3.008 7.339 7.339 0 012.78-2.527 8.75 8.75 0 014.266-1z" fill="#4a3c85" clip-rule="evenodd"/></clipPath><clipPath id="hc"><path d="M334-183v59H169v-59zm-10 10.5H179v39h145zm-72.375 26.484a2.25 2.25 0 011.656.672 2.25 2.25 0 01.672 1.656 2.181 2.181 0 01-.7 1.719 2.372 2.372 0 01-1.625.625 2.459 2.459 0 01-1.664-.617 2.165 2.165 0 01-.711-1.727 2.225 2.225 0 01.688-1.656 2.322 2.322 0 011.684-.672zM252-165a9.107 9.107 0 014 .836 6.486 6.486 0 012.68 2.273 5.576 5.576 0 01.945 3.125 4.832 4.832 0 01-.539 2.328 7.123 7.123 0 01-1.281 1.727q-.742.726-2.664 2.445a10.842 10.842 0 00-.852.852 3.46 3.46 0 00-.477.672 3.3 3.3 0 00-.242.609q-.086.3-.258 1.07a1.739 1.739 0 01-1.859 1.625 1.9 1.9 0 01-1.367-.531 2.087 2.087 0 01-.555-1.578 5.813 5.813 0 01.406-2.273 5.771 5.771 0 011.078-1.687 24.741 24.741 0 011.813-1.727q1-.875 1.445-1.32a4.481 4.481 0 00.75-.992 2.4 2.4 0 00.3-1.187 2.761 2.761 0 00-.93-2.109 3.394 3.394 0 00-2.4-.859 3.318 3.318 0 00-2.531.867 6.913 6.913 0 00-1.375 2.555q-.531 1.766-2.016 1.766a1.982 1.982 0 01-1.477-.617 1.888 1.888 0 01-.6-1.336 5.649 5.649 0 01.953-3.008 7.339 7.339 0 012.787-2.526 8.75 8.75 0 014.266-1z" fill="#4a3c85" clip-rule="evenodd"/></clipPath><clipPath id="hd"><path d="M0-183h165v59H0z" fill="#4a3c85" clip-rule="evenodd"/></clipPath><clipPath id="he"><path d="M0-121h165v59H0z" fill="#4a3c85" clip-rule="evenodd"/></clipPath><clipPath id="hf"><path d="M0-59h165V0H0z" fill="#4a3c85" clip-rule="evenodd"/></clipPath></defs><g transform="translate(0 183)" clip-path="url(#ha)"><path d="M164 5h175v-69H164z" fill="#4a3c85"/></g><g transform="translate(0 183)" clip-path="url(#hb)"><path d="M164-57h175v-69H164z" fill="#4a3c85"/></g><g transform="translate(0 183)" clip-path="url(#hc)"><path d="M164-119h175v-69H164z" fill="#4a3c85"/></g><g transform="translate(0 183)" clip-path="url(#hd)"><path d="M-5-119h175v-69H-5z" fill="#4a3c85"/></g><g transform="translate(0 183)" clip-path="url(#he)"><path d="M-5-57h175v-69H-5z" fill="#4a3c85"/></g><g transform="translate(0 183)" clip-path="url(#hf)"><path d="M-5 5h175v-69H-5z" fill="#4a3c85"/></g></svg><svg width="334" height="245" viewBox="0 0 334 245" id="L2hvbWUvdWJ1bnR1L3dvcmtzcGFjZS9kaWdpdF9yZWFkaW5nLWNvbXBfcmVsZWFzZS0xMi42L3NyYy9yZW5kZXJlcnMvZ29fdDVfczEvaW1nL3JjNjhfZ29faW5mb18yeDRfMV9pcC5zdmc=" x="1004" xmlns="http://www.w3.org/2000/svg"><defs><clipPath id="ia"><path d="M165-121v59H0v-59zm-10 10.5H10v39h145zM82.625-84.016a2.251 2.251 0 011.656.672 2.251 2.251 0 01.672 1.656 2.181 2.181 0 01-.7 1.719 2.373 2.373 0 01-1.625.625 2.459 2.459 0 01-1.664-.617 2.165 2.165 0 01-.711-1.727 2.225 2.225 0 01.688-1.656 2.322 2.322 0 011.684-.672zM83-103a9.107 9.107 0 014 .836 6.486 6.486 0 012.68 2.273 5.576 5.576 0 01.945 3.125 4.832 4.832 0 01-.539 2.328 7.126 7.126 0 01-1.286 1.727q-.742.727-2.664 2.445a10.846 10.846 0 00-.852.852 3.459 3.459 0 00-.477.672 3.3 3.3 0 00-.242.609q-.086.3-.258 1.07a1.739 1.739 0 01-1.859 1.625 1.9 1.9 0 01-1.367-.531 2.087 2.087 0 01-.555-1.578 5.813 5.813 0 01.406-2.273 5.771 5.771 0 011.078-1.687 24.74 24.74 0 011.813-1.727q1-.875 1.445-1.32a4.481 4.481 0 00.75-.992 2.4 2.4 0 00.3-1.187 2.761 2.761 0 00-.93-2.109A3.394 3.394 0 0083-99.7a3.318 3.318 0 00-2.531.867 6.914 6.914 0 00-1.375 2.555q-.531 1.766-2.016 1.766a1.982 1.982 0 01-1.477-.617 1.888 1.888 0 01-.6-1.336 5.649 5.649 0 01.953-3.008 7.339 7.339 0 012.78-2.527A8.75 8.75 0 0183-103z" fill="none" clip-rule="evenodd"/></clipPath><clipPath id="ib"><path d="M165-183v59H0v-59zm-10 10.5H10v39h145zm-72.375 26.484a2.251 2.251 0 011.656.672 2.251 2.251 0 01.672 1.656 2.181 2.181 0 01-.7 1.719 2.372 2.372 0 01-1.625.625 2.459 2.459 0 01-1.664-.617 2.165 2.165 0 01-.711-1.727 2.225 2.225 0 01.688-1.656 2.322 2.322 0 011.684-.672zM83-165a9.107 9.107 0 014 .836 6.486 6.486 0 012.68 2.273 5.576 5.576 0 01.945 3.125 4.832 4.832 0 01-.539 2.328 7.125 7.125 0 01-1.281 1.727q-.742.726-2.664 2.445a10.841 10.841 0 00-.852.852 3.461 3.461 0 00-.477.672 3.3 3.3 0 00-.242.609q-.086.3-.258 1.07a1.739 1.739 0 01-1.859 1.625 1.9 1.9 0 01-1.367-.531 2.087 2.087 0 01-.555-1.578 5.813 5.813 0 01.406-2.273 5.771 5.771 0 011.078-1.687 24.739 24.739 0 011.813-1.727q1-.875 1.445-1.32a4.481 4.481 0 00.75-.992 2.4 2.4 0 00.3-1.187 2.761 2.761 0 00-.93-2.109A3.394 3.394 0 0083-161.7a3.318 3.318 0 00-2.531.867 6.914 6.914 0 00-1.375 2.555q-.531 1.766-2.016 1.766a1.982 1.982 0 01-1.477-.617 1.888 1.888 0 01-.6-1.336 5.649 5.649 0 01.953-3.008 7.339 7.339 0 012.78-2.527A8.75 8.75 0 0183-165z" fill="none" clip-rule="evenodd"/></clipPath><clipPath id="ic"><path d="M165-245v59H0v-59zm-10 10.5H10v39h145zm-72.375 26.484a2.251 2.251 0 011.656.672 2.251 2.251 0 01.672 1.656 2.181 2.181 0 01-.7 1.719 2.372 2.372 0 01-1.625.625 2.459 2.459 0 01-1.664-.617 2.165 2.165 0 01-.711-1.727 2.225 2.225 0 01.688-1.656 2.322 2.322 0 011.684-.672zM83-227a9.107 9.107 0 014 .836 6.486 6.486 0 012.68 2.273 5.576 5.576 0 01.945 3.125 4.832 4.832 0 01-.539 2.328 7.125 7.125 0 01-1.281 1.727q-.742.726-2.664 2.445a10.841 10.841 0 00-.852.852 3.461 3.461 0 00-.477.672 3.3 3.3 0 00-.242.609q-.086.3-.258 1.07a1.739 1.739 0 01-1.859 1.625 1.9 1.9 0 01-1.367-.531 2.087 2.087 0 01-.555-1.578 5.813 5.813 0 01.406-2.273 5.771 5.771 0 011.078-1.687 24.739 24.739 0 011.813-1.727q1-.875 1.445-1.32a4.481 4.481 0 00.75-.992 2.4 2.4 0 00.3-1.187 2.761 2.761 0 00-.93-2.109A3.394 3.394 0 0083-223.7a3.318 3.318 0 00-2.531.867 6.914 6.914 0 00-1.375 2.555q-.531 1.766-2.016 1.766a1.982 1.982 0 01-1.477-.617 1.888 1.888 0 01-.6-1.336 5.649 5.649 0 01.953-3.008 7.339 7.339 0 012.78-2.527A8.75 8.75 0 0183-227z" fill="none" clip-rule="evenodd"/></clipPath><clipPath id="id"><path d="M169-245h165v59H169z" fill="none" clip-rule="evenodd"/></clipPath><clipPath id="ie"><path d="M169-183h165v59H169z" fill="none" clip-rule="evenodd"/></clipPath><clipPath id="if"><path d="M169-121h165v59H169z" fill="none" clip-rule="evenodd"/></clipPath><clipPath id="ig"><path d="M169-59h165V0H169z" fill="none" clip-rule="evenodd"/></clipPath><clipPath id="ih"><path d="M165.5-59V0H.5v-59zm-10 10.5h-145v39h145zM83.125-22.016a2.251 2.251 0 011.656.672 2.251 2.251 0 01.672 1.656 2.181 2.181 0 01-.7 1.719 2.373 2.373 0 01-1.625.625 2.459 2.459 0 01-1.664-.617 2.165 2.165 0 01-.711-1.727 2.225 2.225 0 01.688-1.656 2.322 2.322 0 011.684-.672zM83.5-41a9.107 9.107 0 014 .836 6.486 6.486 0 012.68 2.273 5.576 5.576 0 01.945 3.125 4.832 4.832 0 01-.539 2.328 7.125 7.125 0 01-1.286 1.727q-.742.727-2.664 2.445a10.846 10.846 0 00-.852.852 3.46 3.46 0 00-.477.672 3.3 3.3 0 00-.242.609q-.086.3-.258 1.07a1.739 1.739 0 01-1.859 1.625 1.9 1.9 0 01-1.367-.531 2.087 2.087 0 01-.555-1.578 5.813 5.813 0 01.406-2.273 5.771 5.771 0 011.078-1.687 24.739 24.739 0 011.813-1.727q1-.875 1.445-1.32a4.481 4.481 0 00.75-.992 2.4 2.4 0 00.3-1.187 2.761 2.761 0 00-.93-2.109 3.394 3.394 0 00-2.4-.859 3.318 3.318 0 00-2.531.867 6.914 6.914 0 00-1.375 2.555q-.531 1.766-2.016 1.766a1.982 1.982 0 01-1.477-.617 1.888 1.888 0 01-.6-1.336 5.649 5.649 0 01.953-3.008A7.339 7.339 0 0179.234-40a8.75 8.75 0 014.266-1z" fill="none" clip-rule="evenodd"/></clipPath></defs><g transform="translate(0 245)" clip-path="url(#ia)"><path d="M-5-57h175v-69H-5z" fill="#3a539a"/></g><g transform="translate(0 245)" clip-path="url(#ib)"><path d="M-5-119h175v-69H-5z" fill="#3a539a"/></g><g transform="translate(0 245)" clip-path="url(#ic)"><path d="M-5-181h175v-69H-5z" fill="#3a539a"/></g><g transform="translate(0 245)" clip-path="url(#id)"><path d="M164-181h175v-69H164z" fill="#3a539a"/></g><g transform="translate(0 245)" clip-path="url(#ie)"><path d="M164-119h175v-69H164z" fill="#3a539a"/></g><g transform="translate(0 245)" clip-path="url(#if)"><path d="M164-57h175v-69H164z" fill="#3a539a"/></g><g transform="translate(0 245)" clip-path="url(#ig)"><path d="M164 5h175v-69H164z" fill="#3a539a"/></g><g transform="translate(0 245)" clip-path="url(#ih)"><path d="M-4.5 5h175v-69h-175z" fill="#3a539a"/></g></svg><svg width="334" height="245" viewBox="0 0 334 245" id="L2hvbWUvdWJ1bnR1L3dvcmtzcGFjZS9kaWdpdF9yZWFkaW5nLWNvbXBfcmVsZWFzZS0xMi42L3NyYy9yZW5kZXJlcnMvZ29fdDVfczEvaW1nL3JjNjhfZ29faW5mb18yeDRfMV9xdWl6LnN2Zw==" x="1004" y="245" xmlns="http://www.w3.org/2000/svg"><defs><clipPath id="ja"><path d="M165-121v59H0v-59zm-10 10.5H10v39h145zM82.625-84.016a2.251 2.251 0 011.656.672 2.251 2.251 0 01.672 1.656 2.181 2.181 0 01-.7 1.719 2.373 2.373 0 01-1.625.625 2.459 2.459 0 01-1.664-.617 2.165 2.165 0 01-.711-1.727 2.225 2.225 0 01.688-1.656 2.322 2.322 0 011.684-.672zM83-103a9.107 9.107 0 014 .836 6.486 6.486 0 012.68 2.273 5.576 5.576 0 01.945 3.125 4.832 4.832 0 01-.539 2.328 7.126 7.126 0 01-1.286 1.727q-.742.727-2.664 2.445a10.846 10.846 0 00-.852.852 3.459 3.459 0 00-.477.672 3.3 3.3 0 00-.242.609q-.086.3-.258 1.07a1.739 1.739 0 01-1.859 1.625 1.9 1.9 0 01-1.367-.531 2.087 2.087 0 01-.555-1.578 5.813 5.813 0 01.406-2.273 5.771 5.771 0 011.078-1.687 24.74 24.74 0 011.813-1.727q1-.875 1.445-1.32a4.481 4.481 0 00.75-.992 2.4 2.4 0 00.3-1.187 2.761 2.761 0 00-.93-2.109A3.394 3.394 0 0083-99.7a3.318 3.318 0 00-2.531.867 6.914 6.914 0 00-1.375 2.555q-.531 1.766-2.016 1.766a1.982 1.982 0 01-1.477-.617 1.888 1.888 0 01-.6-1.336 5.649 5.649 0 01.953-3.008 7.339 7.339 0 012.78-2.527A8.75 8.75 0 0183-103z" fill="#4a3c85" clip-rule="evenodd"/></clipPath><clipPath id="jb"><path d="M165-183v59H0v-59zm-10 10.5H10v39h145zm-72.375 26.484a2.251 2.251 0 011.656.672 2.251 2.251 0 01.672 1.656 2.181 2.181 0 01-.7 1.719 2.372 2.372 0 01-1.625.625 2.459 2.459 0 01-1.664-.617 2.165 2.165 0 01-.711-1.727 2.225 2.225 0 01.688-1.656 2.322 2.322 0 011.684-.672zM83-165a9.107 9.107 0 014 .836 6.486 6.486 0 012.68 2.273 5.576 5.576 0 01.945 3.125 4.832 4.832 0 01-.539 2.328 7.125 7.125 0 01-1.281 1.727q-.742.726-2.664 2.445a10.841 10.841 0 00-.852.852 3.461 3.461 0 00-.477.672 3.3 3.3 0 00-.242.609q-.086.3-.258 1.07a1.739 1.739 0 01-1.859 1.625 1.9 1.9 0 01-1.367-.531 2.087 2.087 0 01-.555-1.578 5.813 5.813 0 01.406-2.273 5.771 5.771 0 011.078-1.687 24.739 24.739 0 011.813-1.727q1-.875 1.445-1.32a4.481 4.481 0 00.75-.992 2.4 2.4 0 00.3-1.187 2.761 2.761 0 00-.93-2.109A3.394 3.394 0 0083-161.7a3.318 3.318 0 00-2.531.867 6.914 6.914 0 00-1.375 2.555q-.531 1.766-2.016 1.766a1.982 1.982 0 01-1.477-.617 1.888 1.888 0 01-.6-1.336 5.649 5.649 0 01.953-3.008 7.339 7.339 0 012.78-2.527A8.75 8.75 0 0183-165z" fill="#4a3c85" clip-rule="evenodd"/></clipPath><clipPath id="jc"><path d="M165-245v59H0v-59zm-10 10.5H10v39h145zm-72.375 26.484a2.251 2.251 0 011.656.672 2.251 2.251 0 01.672 1.656 2.181 2.181 0 01-.7 1.719 2.372 2.372 0 01-1.625.625 2.459 2.459 0 01-1.664-.617 2.165 2.165 0 01-.711-1.727 2.225 2.225 0 01.688-1.656 2.322 2.322 0 011.684-.672zM83-227a9.107 9.107 0 014 .836 6.486 6.486 0 012.68 2.273 5.576 5.576 0 01.945 3.125 4.832 4.832 0 01-.539 2.328 7.125 7.125 0 01-1.281 1.727q-.742.726-2.664 2.445a10.841 10.841 0 00-.852.852 3.461 3.461 0 00-.477.672 3.3 3.3 0 00-.242.609q-.086.3-.258 1.07a1.739 1.739 0 01-1.859 1.625 1.9 1.9 0 01-1.367-.531 2.087 2.087 0 01-.555-1.578 5.813 5.813 0 01.406-2.273 5.771 5.771 0 011.078-1.687 24.739 24.739 0 011.813-1.727q1-.875 1.445-1.32a4.481 4.481 0 00.75-.992 2.4 2.4 0 00.3-1.187 2.761 2.761 0 00-.93-2.109A3.394 3.394 0 0083-223.7a3.318 3.318 0 00-2.531.867 6.914 6.914 0 00-1.375 2.555q-.531 1.766-2.016 1.766a1.982 1.982 0 01-1.477-.617 1.888 1.888 0 01-.6-1.336 5.649 5.649 0 01.953-3.008 7.339 7.339 0 012.78-2.527A8.75 8.75 0 0183-227z" fill="#4a3c85" clip-rule="evenodd"/></clipPath><clipPath id="jd"><path d="M169-245h165v59H169z" fill="#4a3c85" clip-rule="evenodd"/></clipPath><clipPath id="je"><path d="M169-183h165v59H169z" fill="#4a3c85" clip-rule="evenodd"/></clipPath><clipPath id="jf"><path d="M169-121h165v59H169z" fill="#4a3c85" clip-rule="evenodd"/></clipPath><clipPath id="jg"><path d="M169-59h165V0H169z" fill="#4a3c85" clip-rule="evenodd"/></clipPath><clipPath id="jh"><path d="M165.5-59V0H.5v-59zm-10 10.5h-145v39h145zM83.125-22.016a2.251 2.251 0 011.656.672 2.251 2.251 0 01.672 1.656 2.181 2.181 0 01-.7 1.719 2.373 2.373 0 01-1.625.625 2.459 2.459 0 01-1.664-.617 2.165 2.165 0 01-.711-1.727 2.225 2.225 0 01.688-1.656 2.322 2.322 0 011.684-.672zM83.5-41a9.107 9.107 0 014 .836 6.486 6.486 0 012.68 2.273 5.576 5.576 0 01.945 3.125 4.832 4.832 0 01-.539 2.328 7.125 7.125 0 01-1.286 1.727q-.742.727-2.664 2.445a10.846 10.846 0 00-.852.852 3.46 3.46 0 00-.477.672 3.3 3.3 0 00-.242.609q-.086.3-.258 1.07a1.739 1.739 0 01-1.859 1.625 1.9 1.9 0 01-1.367-.531 2.087 2.087 0 01-.555-1.578 5.813 5.813 0 01.406-2.273 5.771 5.771 0 011.078-1.687 24.739 24.739 0 011.813-1.727q1-.875 1.445-1.32a4.481 4.481 0 00.75-.992 2.4 2.4 0 00.3-1.187 2.761 2.761 0 00-.93-2.109 3.394 3.394 0 00-2.4-.859 3.318 3.318 0 00-2.531.867 6.914 6.914 0 00-1.375 2.555q-.531 1.766-2.016 1.766a1.982 1.982 0 01-1.477-.617 1.888 1.888 0 01-.6-1.336 5.649 5.649 0 01.953-3.008A7.339 7.339 0 0179.234-40a8.75 8.75 0 014.266-1z" fill="#4a3c85" clip-rule="evenodd"/></clipPath></defs><g transform="translate(0 245)" clip-path="url(#ja)"><path d="M-5-57h175v-69H-5z" fill="#4a3c85"/></g><g transform="translate(0 245)" clip-path="url(#jb)"><path d="M-5-119h175v-69H-5z" fill="#4a3c85"/></g><g transform="translate(0 245)" clip-path="url(#jc)"><path d="M-5-181h175v-69H-5z" fill="#4a3c85"/></g><g transform="translate(0 245)" clip-path="url(#jd)"><path d="M164-181h175v-69H164z" fill="#4a3c85"/></g><g transform="translate(0 245)" clip-path="url(#je)"><path d="M164-119h175v-69H164z" fill="#4a3c85"/></g><g transform="translate(0 245)" clip-path="url(#jf)"><path d="M164-57h175v-69H164z" fill="#4a3c85"/></g><g transform="translate(0 245)" clip-path="url(#jg)"><path d="M164 5h175v-69H164z" fill="#4a3c85"/></g><g transform="translate(0 245)" clip-path="url(#jh)"><path d="M-4.5 5h175v-69h-175z" fill="#4a3c85"/></g></svg><svg width="334" height="245" viewBox="0 0 334 245" id="L2hvbWUvdWJ1bnR1L3dvcmtzcGFjZS9kaWdpdF9yZWFkaW5nLWNvbXBfcmVsZWFzZS0xMi42L3NyYy9yZW5kZXJlcnMvZ29fdDVfczEvaW1nL3JjNjhfZ29faW5mb18yeDRfMl9pcC5zdmc=" x="1004" y="490" xmlns="http://www.w3.org/2000/svg"><defs><clipPath id="ka"><path d="M334-121v59H169v-59zm-10 10.5H179v39h145zm-72.375 26.484a2.25 2.25 0 011.656.672 2.25 2.25 0 01.672 1.656 2.181 2.181 0 01-.7 1.719 2.373 2.373 0 01-1.625.625 2.459 2.459 0 01-1.664-.617 2.165 2.165 0 01-.711-1.727 2.225 2.225 0 01.688-1.656 2.322 2.322 0 011.684-.672zM252-103a9.107 9.107 0 014 .836 6.486 6.486 0 012.68 2.273 5.576 5.576 0 01.945 3.125 4.832 4.832 0 01-.539 2.328 7.123 7.123 0 01-1.281 1.727q-.742.727-2.664 2.445a10.847 10.847 0 00-.852.852 3.459 3.459 0 00-.477.672 3.3 3.3 0 00-.242.609q-.086.3-.258 1.07a1.739 1.739 0 01-1.859 1.625 1.9 1.9 0 01-1.367-.531 2.087 2.087 0 01-.555-1.578 5.814 5.814 0 01.406-2.273 5.771 5.771 0 011.078-1.687 24.741 24.741 0 011.813-1.727q1-.875 1.445-1.32a4.481 4.481 0 00.75-.992 2.4 2.4 0 00.3-1.187 2.761 2.761 0 00-.93-2.109A3.394 3.394 0 00252-99.7a3.318 3.318 0 00-2.531.867 6.914 6.914 0 00-1.375 2.555q-.531 1.766-2.016 1.766a1.982 1.982 0 01-1.477-.617 1.887 1.887 0 01-.6-1.336 5.649 5.649 0 01.953-3.008 7.339 7.339 0 012.78-2.527 8.75 8.75 0 014.266-1z" fill="none" clip-rule="evenodd"/></clipPath><clipPath id="kb"><path d="M334-183v59H169v-59zm-10 10.5H179v39h145zm-72.375 26.484a2.25 2.25 0 011.656.672 2.25 2.25 0 01.672 1.656 2.181 2.181 0 01-.7 1.719 2.372 2.372 0 01-1.625.625 2.459 2.459 0 01-1.664-.617 2.165 2.165 0 01-.711-1.727 2.225 2.225 0 01.688-1.656 2.322 2.322 0 011.684-.672zM252-165a9.107 9.107 0 014 .836 6.486 6.486 0 012.68 2.273 5.576 5.576 0 01.945 3.125 4.832 4.832 0 01-.539 2.328 7.123 7.123 0 01-1.281 1.727q-.742.726-2.664 2.445a10.842 10.842 0 00-.852.852 3.46 3.46 0 00-.477.672 3.3 3.3 0 00-.242.609q-.086.3-.258 1.07a1.739 1.739 0 01-1.859 1.625 1.9 1.9 0 01-1.367-.531 2.087 2.087 0 01-.555-1.578 5.813 5.813 0 01.406-2.273 5.771 5.771 0 011.078-1.687 24.741 24.741 0 011.813-1.727q1-.875 1.445-1.32a4.481 4.481 0 00.75-.992 2.4 2.4 0 00.3-1.187 2.761 2.761 0 00-.93-2.109 3.394 3.394 0 00-2.4-.859 3.318 3.318 0 00-2.531.867 6.913 6.913 0 00-1.375 2.555q-.531 1.766-2.016 1.766a1.982 1.982 0 01-1.477-.617 1.888 1.888 0 01-.6-1.336 5.649 5.649 0 01.953-3.008 7.339 7.339 0 012.787-2.526 8.75 8.75 0 014.266-1z" fill="none" clip-rule="evenodd"/></clipPath><clipPath id="kc"><path d="M334-245v59H169v-59zm-10 10.5H179v39h145zm-72.375 26.484a2.25 2.25 0 011.656.672 2.25 2.25 0 01.672 1.656 2.181 2.181 0 01-.7 1.719 2.372 2.372 0 01-1.625.625 2.459 2.459 0 01-1.664-.617 2.165 2.165 0 01-.711-1.727 2.225 2.225 0 01.688-1.656 2.322 2.322 0 011.684-.672zM252-227a9.107 9.107 0 014 .836 6.486 6.486 0 012.68 2.273 5.576 5.576 0 01.945 3.125 4.832 4.832 0 01-.539 2.328 7.123 7.123 0 01-1.281 1.727q-.742.726-2.664 2.445a10.842 10.842 0 00-.852.852 3.46 3.46 0 00-.477.672 3.3 3.3 0 00-.242.609q-.086.3-.258 1.07a1.739 1.739 0 01-1.859 1.625 1.9 1.9 0 01-1.367-.531 2.087 2.087 0 01-.555-1.578 5.813 5.813 0 01.406-2.273 5.771 5.771 0 011.078-1.687 24.741 24.741 0 011.813-1.727q1-.875 1.445-1.32a4.481 4.481 0 00.75-.992 2.4 2.4 0 00.3-1.187 2.761 2.761 0 00-.93-2.109 3.394 3.394 0 00-2.4-.859 3.318 3.318 0 00-2.531.867 6.913 6.913 0 00-1.375 2.555q-.531 1.766-2.016 1.766a1.982 1.982 0 01-1.477-.617 1.888 1.888 0 01-.6-1.336 5.649 5.649 0 01.953-3.008 7.339 7.339 0 012.787-2.526 8.75 8.75 0 014.266-1z" fill="none" clip-rule="evenodd"/></clipPath><clipPath id="kd"><path d="M0-245h165v59H0z" fill="none" clip-rule="evenodd"/></clipPath><clipPath id="ke"><path d="M0-183h165v59H0z" fill="none" clip-rule="evenodd"/></clipPath><clipPath id="kf"><path d="M0-121h165v59H0z" fill="none" clip-rule="evenodd"/></clipPath><clipPath id="kg"><path d="M0-59h165V0H0z" fill="none" clip-rule="evenodd"/></clipPath><clipPath id="kh"><path d="M334-59V0H169v-59zm-10 10.5H179v39h145zm-72.375 26.484a2.25 2.25 0 011.656.672 2.25 2.25 0 01.672 1.656 2.181 2.181 0 01-.7 1.719 2.373 2.373 0 01-1.625.625 2.459 2.459 0 01-1.664-.617 2.165 2.165 0 01-.711-1.727 2.225 2.225 0 01.688-1.656 2.322 2.322 0 011.684-.672zM252-41a9.107 9.107 0 014 .836 6.486 6.486 0 012.68 2.273 5.576 5.576 0 01.945 3.125 4.832 4.832 0 01-.539 2.328 7.123 7.123 0 01-1.281 1.727q-.742.727-2.664 2.445a10.846 10.846 0 00-.852.852 3.459 3.459 0 00-.477.672 3.3 3.3 0 00-.242.609q-.086.3-.258 1.07a1.739 1.739 0 01-1.859 1.625 1.9 1.9 0 01-1.367-.531 2.087 2.087 0 01-.555-1.578 5.814 5.814 0 01.406-2.273 5.77 5.77 0 011.078-1.687 24.74 24.74 0 011.813-1.727q1-.875 1.445-1.32a4.48 4.48 0 00.75-.992 2.4 2.4 0 00.3-1.187 2.761 2.761 0 00-.93-2.109A3.394 3.394 0 00252-37.7a3.318 3.318 0 00-2.531.867 6.914 6.914 0 00-1.375 2.555q-.531 1.766-2.016 1.766a1.982 1.982 0 01-1.477-.617 1.887 1.887 0 01-.6-1.336 5.649 5.649 0 01.953-3.008 7.339 7.339 0 012.78-2.527A8.75 8.75 0 01252-41z" fill="none" clip-rule="evenodd"/></clipPath></defs><g transform="translate(0 245)" clip-path="url(#ka)"><path d="M164-57h175v-69H164z" fill="#3a539a"/></g><g transform="translate(0 245)" clip-path="url(#kb)"><path d="M164-119h175v-69H164z" fill="#3a539a"/></g><g transform="translate(0 245)" clip-path="url(#kc)"><path d="M164-181h175v-69H164z" fill="#3a539a"/></g><g transform="translate(0 245)" clip-path="url(#kd)"><path d="M-5-181h175v-69H-5z" fill="#3a539a"/></g><g transform="translate(0 245)" clip-path="url(#ke)"><path d="M-5-119h175v-69H-5z" fill="#3a539a"/></g><g transform="translate(0 245)" clip-path="url(#kf)"><path d="M-5-57h175v-69H-5z" fill="#3a539a"/></g><g transform="translate(0 245)" clip-path="url(#kg)"><path d="M-5 5h175v-69H-5z" fill="#3a539a"/></g><g transform="translate(0 245)" clip-path="url(#kh)"><path d="M164 5h175v-69H164z" fill="#3a539a"/></g></svg><svg width="334" height="245" viewBox="0 0 334 245" id="L2hvbWUvdWJ1bnR1L3dvcmtzcGFjZS9kaWdpdF9yZWFkaW5nLWNvbXBfcmVsZWFzZS0xMi42L3NyYy9yZW5kZXJlcnMvZ29fdDVfczEvaW1nL3JjNjhfZ29faW5mb18yeDRfMl9xdWl6LnN2Zw==" y="853" xmlns="http://www.w3.org/2000/svg"><defs><clipPath id="la"><path d="M334-121v59H169v-59zm-10 10.5H179v39h145zm-72.375 26.484a2.25 2.25 0 011.656.672 2.25 2.25 0 01.672 1.656 2.181 2.181 0 01-.7 1.719 2.373 2.373 0 01-1.625.625 2.459 2.459 0 01-1.664-.617 2.165 2.165 0 01-.711-1.727 2.225 2.225 0 01.688-1.656 2.322 2.322 0 011.684-.672zM252-103a9.107 9.107 0 014 .836 6.486 6.486 0 012.68 2.273 5.576 5.576 0 01.945 3.125 4.832 4.832 0 01-.539 2.328 7.123 7.123 0 01-1.281 1.727q-.742.727-2.664 2.445a10.847 10.847 0 00-.852.852 3.459 3.459 0 00-.477.672 3.3 3.3 0 00-.242.609q-.086.3-.258 1.07a1.739 1.739 0 01-1.859 1.625 1.9 1.9 0 01-1.367-.531 2.087 2.087 0 01-.555-1.578 5.814 5.814 0 01.406-2.273 5.771 5.771 0 011.078-1.687 24.741 24.741 0 011.813-1.727q1-.875 1.445-1.32a4.481 4.481 0 00.75-.992 2.4 2.4 0 00.3-1.187 2.761 2.761 0 00-.93-2.109A3.394 3.394 0 00252-99.7a3.318 3.318 0 00-2.531.867 6.914 6.914 0 00-1.375 2.555q-.531 1.766-2.016 1.766a1.982 1.982 0 01-1.477-.617 1.887 1.887 0 01-.6-1.336 5.649 5.649 0 01.953-3.008 7.339 7.339 0 012.78-2.527 8.75 8.75 0 014.266-1z" fill="#4a3c85" clip-rule="evenodd"/></clipPath><clipPath id="lb"><path d="M334-183v59H169v-59zm-10 10.5H179v39h145zm-72.375 26.484a2.25 2.25 0 011.656.672 2.25 2.25 0 01.672 1.656 2.181 2.181 0 01-.7 1.719 2.372 2.372 0 01-1.625.625 2.459 2.459 0 01-1.664-.617 2.165 2.165 0 01-.711-1.727 2.225 2.225 0 01.688-1.656 2.322 2.322 0 011.684-.672zM252-165a9.107 9.107 0 014 .836 6.486 6.486 0 012.68 2.273 5.576 5.576 0 01.945 3.125 4.832 4.832 0 01-.539 2.328 7.123 7.123 0 01-1.281 1.727q-.742.726-2.664 2.445a10.842 10.842 0 00-.852.852 3.46 3.46 0 00-.477.672 3.3 3.3 0 00-.242.609q-.086.3-.258 1.07a1.739 1.739 0 01-1.859 1.625 1.9 1.9 0 01-1.367-.531 2.087 2.087 0 01-.555-1.578 5.813 5.813 0 01.406-2.273 5.771 5.771 0 011.078-1.687 24.741 24.741 0 011.813-1.727q1-.875 1.445-1.32a4.481 4.481 0 00.75-.992 2.4 2.4 0 00.3-1.187 2.761 2.761 0 00-.93-2.109 3.394 3.394 0 00-2.4-.859 3.318 3.318 0 00-2.531.867 6.913 6.913 0 00-1.375 2.555q-.531 1.766-2.016 1.766a1.982 1.982 0 01-1.477-.617 1.888 1.888 0 01-.6-1.336 5.649 5.649 0 01.953-3.008 7.339 7.339 0 012.787-2.526 8.75 8.75 0 014.266-1z" fill="#4a3c85" clip-rule="evenodd"/></clipPath><clipPath id="lc"><path d="M334-245v59H169v-59zm-10 10.5H179v39h145zm-72.375 26.484a2.25 2.25 0 011.656.672 2.25 2.25 0 01.672 1.656 2.181 2.181 0 01-.7 1.719 2.372 2.372 0 01-1.625.625 2.459 2.459 0 01-1.664-.617 2.165 2.165 0 01-.711-1.727 2.225 2.225 0 01.688-1.656 2.322 2.322 0 011.684-.672zM252-227a9.107 9.107 0 014 .836 6.486 6.486 0 012.68 2.273 5.576 5.576 0 01.945 3.125 4.832 4.832 0 01-.539 2.328 7.123 7.123 0 01-1.281 1.727q-.742.726-2.664 2.445a10.842 10.842 0 00-.852.852 3.46 3.46 0 00-.477.672 3.3 3.3 0 00-.242.609q-.086.3-.258 1.07a1.739 1.739 0 01-1.859 1.625 1.9 1.9 0 01-1.367-.531 2.087 2.087 0 01-.555-1.578 5.813 5.813 0 01.406-2.273 5.771 5.771 0 011.078-1.687 24.741 24.741 0 011.813-1.727q1-.875 1.445-1.32a4.481 4.481 0 00.75-.992 2.4 2.4 0 00.3-1.187 2.761 2.761 0 00-.93-2.109 3.394 3.394 0 00-2.4-.859 3.318 3.318 0 00-2.531.867 6.913 6.913 0 00-1.375 2.555q-.531 1.766-2.016 1.766a1.982 1.982 0 01-1.477-.617 1.888 1.888 0 01-.6-1.336 5.649 5.649 0 01.953-3.008 7.339 7.339 0 012.787-2.526 8.75 8.75 0 014.266-1z" fill="#4a3c85" clip-rule="evenodd"/></clipPath><clipPath id="ld"><path d="M0-245h165v59H0z" fill="#4a3c85" clip-rule="evenodd"/></clipPath><clipPath id="le"><path d="M0-183h165v59H0z" fill="#4a3c85" clip-rule="evenodd"/></clipPath><clipPath id="lf"><path d="M0-121h165v59H0z" fill="#4a3c85" clip-rule="evenodd"/></clipPath><clipPath id="lg"><path d="M0-59h165V0H0z" fill="#4a3c85" clip-rule="evenodd"/></clipPath><clipPath id="lh"><path d="M334-59V0H169v-59zm-10 10.5H179v39h145zm-72.375 26.484a2.25 2.25 0 011.656.672 2.25 2.25 0 01.672 1.656 2.181 2.181 0 01-.7 1.719 2.373 2.373 0 01-1.625.625 2.459 2.459 0 01-1.664-.617 2.165 2.165 0 01-.711-1.727 2.225 2.225 0 01.688-1.656 2.322 2.322 0 011.684-.672zM252-41a9.107 9.107 0 014 .836 6.486 6.486 0 012.68 2.273 5.576 5.576 0 01.945 3.125 4.832 4.832 0 01-.539 2.328 7.123 7.123 0 01-1.281 1.727q-.742.727-2.664 2.445a10.846 10.846 0 00-.852.852 3.459 3.459 0 00-.477.672 3.3 3.3 0 00-.242.609q-.086.3-.258 1.07a1.739 1.739 0 01-1.859 1.625 1.9 1.9 0 01-1.367-.531 2.087 2.087 0 01-.555-1.578 5.814 5.814 0 01.406-2.273 5.77 5.77 0 011.078-1.687 24.74 24.74 0 011.813-1.727q1-.875 1.445-1.32a4.48 4.48 0 00.75-.992 2.4 2.4 0 00.3-1.187 2.761 2.761 0 00-.93-2.109A3.394 3.394 0 00252-37.7a3.318 3.318 0 00-2.531.867 6.914 6.914 0 00-1.375 2.555q-.531 1.766-2.016 1.766a1.982 1.982 0 01-1.477-.617 1.887 1.887 0 01-.6-1.336 5.649 5.649 0 01.953-3.008 7.339 7.339 0 012.78-2.527A8.75 8.75 0 01252-41z" fill="#4a3c85" clip-rule="evenodd"/></clipPath></defs><g transform="translate(0 245)" clip-path="url(#la)"><path d="M164-57h175v-69H164z" fill="#4a3c85"/></g><g transform="translate(0 245)" clip-path="url(#lb)"><path d="M164-119h175v-69H164z" fill="#4a3c85"/></g><g transform="translate(0 245)" clip-path="url(#lc)"><path d="M164-181h175v-69H164z" fill="#4a3c85"/></g><g transform="translate(0 245)" clip-path="url(#ld)"><path d="M-5-181h175v-69H-5z" fill="#4a3c85"/></g><g transform="translate(0 245)" clip-path="url(#le)"><path d="M-5-119h175v-69H-5z" fill="#4a3c85"/></g><g transform="translate(0 245)" clip-path="url(#lf)"><path d="M-5-57h175v-69H-5z" fill="#4a3c85"/></g><g transform="translate(0 245)" clip-path="url(#lg)"><path d="M-5 5h175v-69H-5z" fill="#4a3c85"/></g><g transform="translate(0 245)" clip-path="url(#lh)"><path d="M164 5h175v-69H164z" fill="#4a3c85"/></g></svg><svg width="335" height="246" viewBox="0 0 335 246" id="L2hvbWUvdWJ1bnR1L3dvcmtzcGFjZS9kaWdpdF9yZWFkaW5nLWNvbXBfcmVsZWFzZS0xMi42L3NyYy9yZW5kZXJlcnMvZ29fdDVfczEvaW1nL3JjNjhfZ29faW5mb19ub2hlYWRlcl80X2lwLnN2Zw==" y="240" xmlns="http://www.w3.org/2000/svg"><defs><clipPath id="ma"><path d="M335-245v59H0v-59zm-9.528 10H180.037v40h145.435zm-72.592 26.984a2.261 2.261 0 011.661.672 2.247 2.247 0 01.674 1.656 2.178 2.178 0 01-.705 1.719 2.384 2.384 0 01-1.63.625 2.471 2.471 0 01-1.669-.617 2.162 2.162 0 01-.713-1.727 2.222 2.222 0 01.69-1.656 2.332 2.332 0 011.692-.672zm.376-18.984a9.158 9.158 0 014.012.836 6.5 6.5 0 012.688 2.273 5.564 5.564 0 01.948 3.125 4.82 4.82 0 01-.541 2.328 7.124 7.124 0 01-1.285 1.727q-.744.726-2.672 2.445a10.857 10.857 0 00-.854.852 3.459 3.459 0 00-.478.672 3.29 3.29 0 00-.243.609q-.086.3-.259 1.07a1.743 1.743 0 01-1.865 1.625 1.91 1.91 0 01-1.371-.531 2.083 2.083 0 01-.556-1.578 5.8 5.8 0 01.408-2.273 5.769 5.769 0 011.081-1.687 24.784 24.784 0 011.818-1.727q1-.875 1.45-1.32a4.481 4.481 0 00.752-.992 2.393 2.393 0 00.306-1.187 2.758 2.758 0 00-.932-2.109 3.41 3.41 0 00-2.406-.859 3.334 3.334 0 00-2.539.867 6.907 6.907 0 00-1.379 2.555q-.533 1.766-2.022 1.766a1.991 1.991 0 01-1.481-.617 1.885 1.885 0 01-.6-1.336 5.637 5.637 0 01.956-3.008 7.353 7.353 0 012.79-2.523 8.8 8.8 0 014.274-1.003z" transform="translate(0 245)" fill="none" clip-rule="evenodd"/></clipPath><clipPath id="mb"><path d="M335-183v59H0v-59zm-9.528 10H180.037v40h145.435zm-72.592 26.984a2.261 2.261 0 011.661.672 2.247 2.247 0 01.674 1.656 2.178 2.178 0 01-.705 1.719 2.384 2.384 0 01-1.63.625 2.471 2.471 0 01-1.669-.617 2.162 2.162 0 01-.713-1.727 2.222 2.222 0 01.69-1.656 2.332 2.332 0 011.692-.672zm.376-18.984a9.158 9.158 0 014.012.836 6.5 6.5 0 012.688 2.273 5.564 5.564 0 01.948 3.125 4.82 4.82 0 01-.541 2.328 7.124 7.124 0 01-1.285 1.727q-.744.726-2.672 2.445a10.857 10.857 0 00-.854.852 3.459 3.459 0 00-.478.672 3.29 3.29 0 00-.243.609q-.086.3-.259 1.07a1.743 1.743 0 01-1.865 1.625 1.91 1.91 0 01-1.371-.531 2.083 2.083 0 01-.556-1.578 5.8 5.8 0 01.408-2.273 5.769 5.769 0 011.081-1.687 24.784 24.784 0 011.818-1.727q1-.875 1.45-1.32a4.481 4.481 0 00.752-.992 2.393 2.393 0 00.306-1.187 2.758 2.758 0 00-.932-2.109 3.41 3.41 0 00-2.406-.859 3.334 3.334 0 00-2.539.867 6.907 6.907 0 00-1.379 2.555q-.533 1.766-2.022 1.766a1.991 1.991 0 01-1.481-.617 1.885 1.885 0 01-.6-1.336 5.637 5.637 0 01.956-3.008 7.353 7.353 0 012.79-2.523 8.8 8.8 0 014.274-1.003z" transform="translate(0 183)" fill="none" clip-rule="evenodd"/></clipPath><clipPath id="mc"><path d="M335-121v59H0v-59zm-9.528 10H180.037v40h145.435zM252.88-84.016a2.261 2.261 0 011.661.672 2.247 2.247 0 01.674 1.656 2.178 2.178 0 01-.705 1.719 2.384 2.384 0 01-1.63.625 2.471 2.471 0 01-1.669-.617 2.162 2.162 0 01-.713-1.727 2.221 2.221 0 01.69-1.656 2.332 2.332 0 011.692-.672zm.376-18.984a9.158 9.158 0 014.012.836 6.5 6.5 0 012.688 2.273 5.564 5.564 0 01.948 3.125 4.82 4.82 0 01-.541 2.328 7.124 7.124 0 01-1.285 1.727q-.744.727-2.672 2.445a10.862 10.862 0 00-.854.852 3.458 3.458 0 00-.478.672 3.29 3.29 0 00-.243.609q-.086.3-.259 1.07a1.743 1.743 0 01-1.865 1.625 1.91 1.91 0 01-1.371-.531 2.083 2.083 0 01-.556-1.578 5.8 5.8 0 01.408-2.273 5.768 5.768 0 011.081-1.687 24.785 24.785 0 011.818-1.727q1-.875 1.45-1.32a4.481 4.481 0 00.752-.992 2.393 2.393 0 00.306-1.187 2.757 2.757 0 00-.932-2.109 3.41 3.41 0 00-2.406-.859 3.334 3.334 0 00-2.539.867 6.907 6.907 0 00-1.379 2.555q-.533 1.766-2.022 1.766a1.99 1.99 0 01-1.481-.617 1.885 1.885 0 01-.6-1.336 5.637 5.637 0 01.956-3.008 7.353 7.353 0 012.79-2.523 8.8 8.8 0 014.274-1.003z" transform="translate(0 121)" fill="none" clip-rule="evenodd"/></clipPath><clipPath id="md"><path d="M335-59V0H0v-59zm-9.528 10H180.037v40h145.435zM252.88-22.016a2.261 2.261 0 011.661.672 2.247 2.247 0 01.674 1.656 2.178 2.178 0 01-.705 1.719 2.384 2.384 0 01-1.63.625 2.471 2.471 0 01-1.669-.617 2.162 2.162 0 01-.713-1.727 2.221 2.221 0 01.69-1.656 2.332 2.332 0 011.692-.672zM253.256-41a9.158 9.158 0 014.012.836 6.5 6.5 0 012.688 2.273 5.564 5.564 0 01.948 3.125 4.82 4.82 0 01-.541 2.328 7.124 7.124 0 01-1.285 1.727q-.744.727-2.672 2.445a10.862 10.862 0 00-.854.852 3.458 3.458 0 00-.478.672 3.29 3.29 0 00-.243.609q-.086.3-.259 1.07a1.743 1.743 0 01-1.865 1.625 1.91 1.91 0 01-1.371-.531 2.083 2.083 0 01-.556-1.578 5.8 5.8 0 01.408-2.273 5.768 5.768 0 011.081-1.687 24.784 24.784 0 011.818-1.727q1-.875 1.45-1.32a4.481 4.481 0 00.752-.992 2.393 2.393 0 00.306-1.187 2.757 2.757 0 00-.932-2.109 3.41 3.41 0 00-2.406-.859 3.334 3.334 0 00-2.539.867 6.908 6.908 0 00-1.379 2.555q-.533 1.766-2.022 1.766a1.99 1.99 0 01-1.481-.617 1.885 1.885 0 01-.6-1.336 5.637 5.637 0 01.956-3.008A7.353 7.353 0 01248.978-40a8.8 8.8 0 014.278-1z" transform="translate(0 59)" fill="none" clip-rule="evenodd"/></clipPath></defs><g clip-path="url(#ma)"><path d="M-5.015 64h345.03V-5H-5.015z" fill="#3a539a"/></g><g transform="translate(0 62.333)" clip-path="url(#mb)"><path d="M-5.015 64h345.03V-5H-5.015z" fill="#3a539a"/></g><g transform="translate(0 124.667)" clip-path="url(#mc)"><path d="M-5.015 64h345.03V-5H-5.015z" fill="#3a539a"/></g><g transform="translate(0 187)" clip-path="url(#md)"><path d="M-5.015 64h345.03V-5H-5.015z" fill="#3a539a"/></g></svg><svg width="335" height="246" viewBox="0 0 335 246" id="L2hvbWUvdWJ1bnR1L3dvcmtzcGFjZS9kaWdpdF9yZWFkaW5nLWNvbXBfcmVsZWFzZS0xMi42L3NyYy9yZW5kZXJlcnMvZ29fdDVfczEvaW1nL3JjNjhfZ29faW5mb19ub2hlYWRlcl80X3F1aXouc3Zn" x="335" xmlns="http://www.w3.org/2000/svg"><defs><clipPath id="na"><path d="M335-245v59H0v-59zm-9.528 10H180.037v40h145.435zm-72.592 26.984a2.261 2.261 0 011.661.672 2.247 2.247 0 01.674 1.656 2.178 2.178 0 01-.705 1.719 2.384 2.384 0 01-1.63.625 2.471 2.471 0 01-1.669-.617 2.162 2.162 0 01-.713-1.727 2.222 2.222 0 01.69-1.656 2.332 2.332 0 011.692-.672zm.376-18.984a9.158 9.158 0 014.012.836 6.5 6.5 0 012.688 2.273 5.564 5.564 0 01.948 3.125 4.82 4.82 0 01-.541 2.328 7.124 7.124 0 01-1.285 1.727q-.744.726-2.672 2.445a10.857 10.857 0 00-.854.852 3.459 3.459 0 00-.478.672 3.29 3.29 0 00-.243.609q-.086.3-.259 1.07a1.743 1.743 0 01-1.865 1.625 1.91 1.91 0 01-1.371-.531 2.083 2.083 0 01-.556-1.578 5.8 5.8 0 01.408-2.273 5.769 5.769 0 011.081-1.687 24.784 24.784 0 011.818-1.727q1-.875 1.45-1.32a4.481 4.481 0 00.752-.992 2.393 2.393 0 00.306-1.187 2.758 2.758 0 00-.932-2.109 3.41 3.41 0 00-2.406-.859 3.334 3.334 0 00-2.539.867 6.907 6.907 0 00-1.379 2.555q-.533 1.766-2.022 1.766a1.991 1.991 0 01-1.481-.617 1.885 1.885 0 01-.6-1.336 5.637 5.637 0 01.956-3.008 7.353 7.353 0 012.79-2.523 8.8 8.8 0 014.274-1.003z" transform="translate(0 245)" fill="#4a3c85" clip-rule="evenodd"/></clipPath><clipPath id="nb"><path d="M335-183v59H0v-59zm-9.528 10H180.037v40h145.435zm-72.592 26.984a2.261 2.261 0 011.661.672 2.247 2.247 0 01.674 1.656 2.178 2.178 0 01-.705 1.719 2.384 2.384 0 01-1.63.625 2.471 2.471 0 01-1.669-.617 2.162 2.162 0 01-.713-1.727 2.222 2.222 0 01.69-1.656 2.332 2.332 0 011.692-.672zm.376-18.984a9.158 9.158 0 014.012.836 6.5 6.5 0 012.688 2.273 5.564 5.564 0 01.948 3.125 4.82 4.82 0 01-.541 2.328 7.124 7.124 0 01-1.285 1.727q-.744.726-2.672 2.445a10.857 10.857 0 00-.854.852 3.459 3.459 0 00-.478.672 3.29 3.29 0 00-.243.609q-.086.3-.259 1.07a1.743 1.743 0 01-1.865 1.625 1.91 1.91 0 01-1.371-.531 2.083 2.083 0 01-.556-1.578 5.8 5.8 0 01.408-2.273 5.769 5.769 0 011.081-1.687 24.784 24.784 0 011.818-1.727q1-.875 1.45-1.32a4.481 4.481 0 00.752-.992 2.393 2.393 0 00.306-1.187 2.758 2.758 0 00-.932-2.109 3.41 3.41 0 00-2.406-.859 3.334 3.334 0 00-2.539.867 6.907 6.907 0 00-1.379 2.555q-.533 1.766-2.022 1.766a1.991 1.991 0 01-1.481-.617 1.885 1.885 0 01-.6-1.336 5.637 5.637 0 01.956-3.008 7.353 7.353 0 012.79-2.523 8.8 8.8 0 014.274-1.003z" transform="translate(0 183)" fill="#4a3c85" clip-rule="evenodd"/></clipPath><clipPath id="nc"><path d="M335-121v59H0v-59zm-9.528 10H180.037v40h145.435zM252.88-84.016a2.261 2.261 0 011.661.672 2.247 2.247 0 01.674 1.656 2.178 2.178 0 01-.705 1.719 2.384 2.384 0 01-1.63.625 2.471 2.471 0 01-1.669-.617 2.162 2.162 0 01-.713-1.727 2.221 2.221 0 01.69-1.656 2.332 2.332 0 011.692-.672zm.376-18.984a9.158 9.158 0 014.012.836 6.5 6.5 0 012.688 2.273 5.564 5.564 0 01.948 3.125 4.82 4.82 0 01-.541 2.328 7.124 7.124 0 01-1.285 1.727q-.744.727-2.672 2.445a10.862 10.862 0 00-.854.852 3.458 3.458 0 00-.478.672 3.29 3.29 0 00-.243.609q-.086.3-.259 1.07a1.743 1.743 0 01-1.865 1.625 1.91 1.91 0 01-1.371-.531 2.083 2.083 0 01-.556-1.578 5.8 5.8 0 01.408-2.273 5.768 5.768 0 011.081-1.687 24.785 24.785 0 011.818-1.727q1-.875 1.45-1.32a4.481 4.481 0 00.752-.992 2.393 2.393 0 00.306-1.187 2.757 2.757 0 00-.932-2.109 3.41 3.41 0 00-2.406-.859 3.334 3.334 0 00-2.539.867 6.907 6.907 0 00-1.379 2.555q-.533 1.766-2.022 1.766a1.99 1.99 0 01-1.481-.617 1.885 1.885 0 01-.6-1.336 5.637 5.637 0 01.956-3.008 7.353 7.353 0 012.79-2.523 8.8 8.8 0 014.274-1.003z" transform="translate(0 121)" fill="#4a3c85" clip-rule="evenodd"/></clipPath><clipPath id="nd"><path d="M335-59V0H0v-59zm-9.528 10H180.037v40h145.435zM252.88-22.016a2.261 2.261 0 011.661.672 2.247 2.247 0 01.674 1.656 2.178 2.178 0 01-.705 1.719 2.384 2.384 0 01-1.63.625 2.471 2.471 0 01-1.669-.617 2.162 2.162 0 01-.713-1.727 2.221 2.221 0 01.69-1.656 2.332 2.332 0 011.692-.672zM253.256-41a9.158 9.158 0 014.012.836 6.5 6.5 0 012.688 2.273 5.564 5.564 0 01.948 3.125 4.82 4.82 0 01-.541 2.328 7.124 7.124 0 01-1.285 1.727q-.744.727-2.672 2.445a10.862 10.862 0 00-.854.852 3.458 3.458 0 00-.478.672 3.29 3.29 0 00-.243.609q-.086.3-.259 1.07a1.743 1.743 0 01-1.865 1.625 1.91 1.91 0 01-1.371-.531 2.083 2.083 0 01-.556-1.578 5.8 5.8 0 01.408-2.273 5.768 5.768 0 011.081-1.687 24.784 24.784 0 011.818-1.727q1-.875 1.45-1.32a4.481 4.481 0 00.752-.992 2.393 2.393 0 00.306-1.187 2.757 2.757 0 00-.932-2.109 3.41 3.41 0 00-2.406-.859 3.334 3.334 0 00-2.539.867 6.908 6.908 0 00-1.379 2.555q-.533 1.766-2.022 1.766a1.99 1.99 0 01-1.481-.617 1.885 1.885 0 01-.6-1.336 5.637 5.637 0 01.956-3.008A7.353 7.353 0 01248.978-40a8.8 8.8 0 014.278-1z" transform="translate(0 59)" fill="#4a3c85" clip-rule="evenodd"/></clipPath></defs><g clip-path="url(#na)"><path d="M-5.015 64h345.03V-5H-5.015z" fill="#4a3c85"/></g><g transform="translate(0 62.333)" clip-path="url(#nb)"><path d="M-5.015 64h345.03V-5H-5.015z" fill="#4a3c85"/></g><g transform="translate(0 124.667)" clip-path="url(#nc)"><path d="M-5.015 64h345.03V-5H-5.015z" fill="#4a3c85"/></g><g transform="translate(0 187)" clip-path="url(#nd)"><path d="M-5.015 64h345.03V-5H-5.015z" fill="#4a3c85"/></g></svg><svg width="335" height="60" viewBox="0 0 335 60" id="L2hvbWUvdWJ1bnR1L3dvcmtzcGFjZS9kaWdpdF9yZWFkaW5nLWNvbXBfcmVsZWFzZS0xMi42L3NyYy9yZW5kZXJlcnMvZ29fdDVfczEvaW1nL3JjNjhfZ29faW5mb19ub2hlYWRlcl8xX2lwLnN2Zw==" x="335" y="246" xmlns="http://www.w3.org/2000/svg"><defs><clipPath id="oa"><path data-name="Path 5971" d="M335.5-59V1H.5v-60zm-9.528 10.169H180.537v40.678h145.435zM253.38-21.389a2.241 2.241 0 011.661.683 2.3 2.3 0 01.674 1.684 2.233 2.233 0 01-.705 1.748 2.361 2.361 0 01-1.63.636 2.447 2.447 0 01-1.669-.628 2.216 2.216 0 01-.711-1.755 2.278 2.278 0 01.69-1.684 2.312 2.312 0 011.69-.684zm.376-19.306a9.029 9.029 0 014.012.85 6.53 6.53 0 012.688 2.312 5.727 5.727 0 01.948 3.178 4.97 4.97 0 01-.541 2.368 7.237 7.237 0 01-1.285 1.756q-.744.739-2.672 2.487a10.956 10.956 0 00-.854.866 3.518 3.518 0 00-.478.683 3.38 3.38 0 00-.243.62q-.086.31-.259 1.088a1.752 1.752 0 01-1.865 1.653 1.892 1.892 0 01-1.371-.54 2.139 2.139 0 01-.556-1.6 5.985 5.985 0 01.408-2.312 5.879 5.879 0 011.081-1.716 24.968 24.968 0 011.818-1.756q1-.89 1.45-1.343a4.551 4.551 0 00.752-1.009 2.466 2.466 0 00.306-1.208 2.826 2.826 0 00-.932-2.145 3.376 3.376 0 00-2.406-.874 3.3 3.3 0 00-2.539.882 7.06 7.06 0 00-1.379 2.6q-.533 1.8-2.022 1.8a1.974 1.974 0 01-1.481-.628 1.932 1.932 0 01-.6-1.359 5.8 5.8 0 01.956-3.059 7.4 7.4 0 012.79-2.566 8.679 8.679 0 014.274-1.028z" fill="none" clip-rule="evenodd"/></clipPath></defs><g data-name="Group 8431" transform="translate(-.5 59)" clip-path="url(#oa)"><path data-name="Path 5970" d="M-4.515 6.084h345.03v-70.169H-4.515z" fill="#3a539a"/></g></svg><svg width="335" height="60" viewBox="0 0 335 60" id="L2hvbWUvdWJ1bnR1L3dvcmtzcGFjZS9kaWdpdF9yZWFkaW5nLWNvbXBfcmVsZWFzZS0xMi42L3NyYy9yZW5kZXJlcnMvZ29fdDVfczEvaW1nL3JjNjhfZ29faW5mb19ub2hlYWRlcl8xX3F1aXouc3Zn" x="335" y="306" xmlns="http://www.w3.org/2000/svg"><defs><clipPath id="pa"><path data-name="Path 5971" d="M335.5-59V1H.5v-60zm-9.528 10.169H180.537v40.678h145.435zM253.38-21.389a2.241 2.241 0 011.661.683 2.3 2.3 0 01.674 1.684 2.233 2.233 0 01-.705 1.748 2.361 2.361 0 01-1.63.636 2.447 2.447 0 01-1.669-.628 2.216 2.216 0 01-.711-1.755 2.278 2.278 0 01.69-1.684 2.312 2.312 0 011.69-.684zm.376-19.306a9.029 9.029 0 014.012.85 6.53 6.53 0 012.688 2.312 5.727 5.727 0 01.948 3.178 4.97 4.97 0 01-.541 2.368 7.237 7.237 0 01-1.285 1.756q-.744.739-2.672 2.487a10.956 10.956 0 00-.854.866 3.518 3.518 0 00-.478.683 3.38 3.38 0 00-.243.62q-.086.31-.259 1.088a1.752 1.752 0 01-1.865 1.653 1.892 1.892 0 01-1.371-.54 2.139 2.139 0 01-.556-1.6 5.985 5.985 0 01.408-2.312 5.879 5.879 0 011.081-1.716 24.968 24.968 0 011.818-1.756q1-.89 1.45-1.343a4.551 4.551 0 00.752-1.009 2.466 2.466 0 00.306-1.208 2.826 2.826 0 00-.932-2.145 3.376 3.376 0 00-2.406-.874 3.3 3.3 0 00-2.539.882 7.06 7.06 0 00-1.379 2.6q-.533 1.8-2.022 1.8a1.974 1.974 0 01-1.481-.628 1.932 1.932 0 01-.6-1.359 5.8 5.8 0 01.956-3.059 7.4 7.4 0 012.79-2.566 8.679 8.679 0 014.274-1.028z" fill="#4a3c85" clip-rule="evenodd"/></clipPath></defs><g data-name="Group 8431" transform="translate(-.5 59)" clip-path="url(#pa)"><path data-name="Path 5970" d="M-4.515 6.084h345.03v-70.169H-4.515z" fill="#4a3c85"/></g></svg><svg width="335" height="184" viewBox="0 0 335 184" id="L2hvbWUvdWJ1bnR1L3dvcmtzcGFjZS9kaWdpdF9yZWFkaW5nLWNvbXBfcmVsZWFzZS0xMi42L3NyYy9yZW5kZXJlcnMvZ29fdDVfczEvaW1nL3JjNjhfZ29faW5mb19ub2hlYWRlcl8zX2lwLnN2Zw==" y="486" xmlns="http://www.w3.org/2000/svg"><defs><clipPath id="qa"><path d="M335-183v59H0v-59zm-9.528 10H180.037v40h145.435zm-72.592 26.984a2.261 2.261 0 011.661.672 2.247 2.247 0 01.674 1.656 2.178 2.178 0 01-.705 1.719 2.384 2.384 0 01-1.63.625 2.471 2.471 0 01-1.669-.617 2.162 2.162 0 01-.713-1.727 2.222 2.222 0 01.69-1.656 2.332 2.332 0 011.692-.672zm.376-18.984a9.158 9.158 0 014.012.836 6.5 6.5 0 012.688 2.273 5.564 5.564 0 01.948 3.125 4.82 4.82 0 01-.541 2.328 7.124 7.124 0 01-1.285 1.727q-.744.726-2.672 2.445a10.857 10.857 0 00-.854.852 3.459 3.459 0 00-.478.672 3.29 3.29 0 00-.243.609q-.086.3-.259 1.07a1.743 1.743 0 01-1.865 1.625 1.91 1.91 0 01-1.371-.531 2.083 2.083 0 01-.556-1.578 5.8 5.8 0 01.408-2.273 5.769 5.769 0 011.081-1.687 24.784 24.784 0 011.818-1.727q1-.875 1.45-1.32a4.481 4.481 0 00.752-.992 2.393 2.393 0 00.306-1.187 2.758 2.758 0 00-.932-2.109 3.41 3.41 0 00-2.406-.859 3.334 3.334 0 00-2.539.867 6.907 6.907 0 00-1.379 2.555q-.533 1.766-2.022 1.766a1.991 1.991 0 01-1.481-.617 1.885 1.885 0 01-.6-1.336 5.637 5.637 0 01.956-3.008 7.353 7.353 0 012.79-2.523 8.8 8.8 0 014.274-1.003z" transform="translate(0 183)" fill="none" clip-rule="evenodd"/></clipPath><clipPath id="qb"><path d="M335-121v59H0v-59zm-9.528 10H180.037v40h145.435zM252.88-84.016a2.261 2.261 0 011.661.672 2.247 2.247 0 01.674 1.656 2.178 2.178 0 01-.705 1.719 2.384 2.384 0 01-1.63.625 2.471 2.471 0 01-1.669-.617 2.162 2.162 0 01-.713-1.727 2.221 2.221 0 01.69-1.656 2.332 2.332 0 011.692-.672zm.376-18.984a9.158 9.158 0 014.012.836 6.5 6.5 0 012.688 2.273 5.564 5.564 0 01.948 3.125 4.82 4.82 0 01-.541 2.328 7.124 7.124 0 01-1.285 1.727q-.744.727-2.672 2.445a10.862 10.862 0 00-.854.852 3.458 3.458 0 00-.478.672 3.29 3.29 0 00-.243.609q-.086.3-.259 1.07a1.743 1.743 0 01-1.865 1.625 1.91 1.91 0 01-1.371-.531 2.083 2.083 0 01-.556-1.578 5.8 5.8 0 01.408-2.273 5.768 5.768 0 011.081-1.687 24.785 24.785 0 011.818-1.727q1-.875 1.45-1.32a4.481 4.481 0 00.752-.992 2.393 2.393 0 00.306-1.187 2.757 2.757 0 00-.932-2.109 3.41 3.41 0 00-2.406-.859 3.334 3.334 0 00-2.539.867 6.907 6.907 0 00-1.379 2.555q-.533 1.766-2.022 1.766a1.99 1.99 0 01-1.481-.617 1.885 1.885 0 01-.6-1.336 5.637 5.637 0 01.956-3.008 7.353 7.353 0 012.79-2.523 8.8 8.8 0 014.274-1.003z" transform="translate(0 121)" fill="none" clip-rule="evenodd"/></clipPath><clipPath id="qc"><path d="M335-59V0H0v-59zm-9.528 10H180.037v40h145.435zM252.88-22.016a2.261 2.261 0 011.661.672 2.247 2.247 0 01.674 1.656 2.178 2.178 0 01-.705 1.719 2.384 2.384 0 01-1.63.625 2.471 2.471 0 01-1.669-.617 2.162 2.162 0 01-.713-1.727 2.221 2.221 0 01.69-1.656 2.332 2.332 0 011.692-.672zM253.256-41a9.158 9.158 0 014.012.836 6.5 6.5 0 012.688 2.273 5.564 5.564 0 01.948 3.125 4.82 4.82 0 01-.541 2.328 7.124 7.124 0 01-1.285 1.727q-.744.727-2.672 2.445a10.862 10.862 0 00-.854.852 3.458 3.458 0 00-.478.672 3.29 3.29 0 00-.243.609q-.086.3-.259 1.07a1.743 1.743 0 01-1.865 1.625 1.91 1.91 0 01-1.371-.531 2.083 2.083 0 01-.556-1.578 5.8 5.8 0 01.408-2.273 5.768 5.768 0 011.081-1.687 24.784 24.784 0 011.818-1.727q1-.875 1.45-1.32a4.481 4.481 0 00.752-.992 2.393 2.393 0 00.306-1.187 2.757 2.757 0 00-.932-2.109 3.41 3.41 0 00-2.406-.859 3.334 3.334 0 00-2.539.867 6.908 6.908 0 00-1.379 2.555q-.533 1.766-2.022 1.766a1.99 1.99 0 01-1.481-.617 1.885 1.885 0 01-.6-1.336 5.637 5.637 0 01.956-3.008A7.353 7.353 0 01248.978-40a8.8 8.8 0 014.278-1z" transform="translate(0 59)" fill="none" clip-rule="evenodd"/></clipPath></defs><g clip-path="url(#qa)"><path d="M-5.015 64h345.03V-5H-5.015z" fill="#3a539a"/></g><g transform="translate(0 62.5)" clip-path="url(#qb)"><path d="M-5.015 64h345.03V-5H-5.015z" fill="#3a539a"/></g><g transform="translate(0 125)" clip-path="url(#qc)"><path d="M-5.015 64h345.03V-5H-5.015z" fill="#3a539a"/></g></svg><svg width="335" height="184" viewBox="0 0 335 184" id="L2hvbWUvdWJ1bnR1L3dvcmtzcGFjZS9kaWdpdF9yZWFkaW5nLWNvbXBfcmVsZWFzZS0xMi42L3NyYy9yZW5kZXJlcnMvZ29fdDVfczEvaW1nL3JjNjhfZ29faW5mb19ub2hlYWRlcl8zX3F1aXouc3Zn" x="335" y="486" xmlns="http://www.w3.org/2000/svg"><defs><clipPath id="ra"><path d="M335-183v59H0v-59zm-9.528 10H180.037v40h145.435zm-72.592 26.984a2.261 2.261 0 011.661.672 2.247 2.247 0 01.674 1.656 2.178 2.178 0 01-.705 1.719 2.384 2.384 0 01-1.63.625 2.471 2.471 0 01-1.669-.617 2.162 2.162 0 01-.713-1.727 2.222 2.222 0 01.69-1.656 2.332 2.332 0 011.692-.672zm.376-18.984a9.158 9.158 0 014.012.836 6.5 6.5 0 012.688 2.273 5.564 5.564 0 01.948 3.125 4.82 4.82 0 01-.541 2.328 7.124 7.124 0 01-1.285 1.727q-.744.726-2.672 2.445a10.857 10.857 0 00-.854.852 3.459 3.459 0 00-.478.672 3.29 3.29 0 00-.243.609q-.086.3-.259 1.07a1.743 1.743 0 01-1.865 1.625 1.91 1.91 0 01-1.371-.531 2.083 2.083 0 01-.556-1.578 5.8 5.8 0 01.408-2.273 5.769 5.769 0 011.081-1.687 24.784 24.784 0 011.818-1.727q1-.875 1.45-1.32a4.481 4.481 0 00.752-.992 2.393 2.393 0 00.306-1.187 2.758 2.758 0 00-.932-2.109 3.41 3.41 0 00-2.406-.859 3.334 3.334 0 00-2.539.867 6.907 6.907 0 00-1.379 2.555q-.533 1.766-2.022 1.766a1.991 1.991 0 01-1.481-.617 1.885 1.885 0 01-.6-1.336 5.637 5.637 0 01.956-3.008 7.353 7.353 0 012.79-2.523 8.8 8.8 0 014.274-1.003z" transform="translate(0 183)" fill="#4a3c85" clip-rule="evenodd"/></clipPath><clipPath id="rb"><path d="M335-121v59H0v-59zm-9.528 10H180.037v40h145.435zM252.88-84.016a2.261 2.261 0 011.661.672 2.247 2.247 0 01.674 1.656 2.178 2.178 0 01-.705 1.719 2.384 2.384 0 01-1.63.625 2.471 2.471 0 01-1.669-.617 2.162 2.162 0 01-.713-1.727 2.221 2.221 0 01.69-1.656 2.332 2.332 0 011.692-.672zm.376-18.984a9.158 9.158 0 014.012.836 6.5 6.5 0 012.688 2.273 5.564 5.564 0 01.948 3.125 4.82 4.82 0 01-.541 2.328 7.124 7.124 0 01-1.285 1.727q-.744.727-2.672 2.445a10.862 10.862 0 00-.854.852 3.458 3.458 0 00-.478.672 3.29 3.29 0 00-.243.609q-.086.3-.259 1.07a1.743 1.743 0 01-1.865 1.625 1.91 1.91 0 01-1.371-.531 2.083 2.083 0 01-.556-1.578 5.8 5.8 0 01.408-2.273 5.768 5.768 0 011.081-1.687 24.785 24.785 0 011.818-1.727q1-.875 1.45-1.32a4.481 4.481 0 00.752-.992 2.393 2.393 0 00.306-1.187 2.757 2.757 0 00-.932-2.109 3.41 3.41 0 00-2.406-.859 3.334 3.334 0 00-2.539.867 6.907 6.907 0 00-1.379 2.555q-.533 1.766-2.022 1.766a1.99 1.99 0 01-1.481-.617 1.885 1.885 0 01-.6-1.336 5.637 5.637 0 01.956-3.008 7.353 7.353 0 012.79-2.523 8.8 8.8 0 014.274-1.003z" transform="translate(0 121)" fill="#4a3c85" clip-rule="evenodd"/></clipPath><clipPath id="rc"><path d="M335-59V0H0v-59zm-9.528 10H180.037v40h145.435zM252.88-22.016a2.261 2.261 0 011.661.672 2.247 2.247 0 01.674 1.656 2.178 2.178 0 01-.705 1.719 2.384 2.384 0 01-1.63.625 2.471 2.471 0 01-1.669-.617 2.162 2.162 0 01-.713-1.727 2.221 2.221 0 01.69-1.656 2.332 2.332 0 011.692-.672zM253.256-41a9.158 9.158 0 014.012.836 6.5 6.5 0 012.688 2.273 5.564 5.564 0 01.948 3.125 4.82 4.82 0 01-.541 2.328 7.124 7.124 0 01-1.285 1.727q-.744.727-2.672 2.445a10.862 10.862 0 00-.854.852 3.458 3.458 0 00-.478.672 3.29 3.29 0 00-.243.609q-.086.3-.259 1.07a1.743 1.743 0 01-1.865 1.625 1.91 1.91 0 01-1.371-.531 2.083 2.083 0 01-.556-1.578 5.8 5.8 0 01.408-2.273 5.768 5.768 0 011.081-1.687 24.784 24.784 0 011.818-1.727q1-.875 1.45-1.32a4.481 4.481 0 00.752-.992 2.393 2.393 0 00.306-1.187 2.757 2.757 0 00-.932-2.109 3.41 3.41 0 00-2.406-.859 3.334 3.334 0 00-2.539.867 6.908 6.908 0 00-1.379 2.555q-.533 1.766-2.022 1.766a1.99 1.99 0 01-1.481-.617 1.885 1.885 0 01-.6-1.336 5.637 5.637 0 01.956-3.008A7.353 7.353 0 01248.978-40a8.8 8.8 0 014.278-1z" transform="translate(0 59)" fill="#4a3c85" clip-rule="evenodd"/></clipPath></defs><g clip-path="url(#ra)"><path d="M-5.015 64h345.03V-5H-5.015z" fill="#4a3c85"/></g><g transform="translate(0 62.5)" clip-path="url(#rb)"><path d="M-5.015 64h345.03V-5H-5.015z" fill="#4a3c85"/></g><g transform="translate(0 125)" clip-path="url(#rc)"><path d="M-5.015 64h345.03V-5H-5.015z" fill="#4a3c85"/></g></svg><svg width="27" height="41" viewBox="0 0 27 41" id="L2hvbWUvdWJ1bnR1L3dvcmtzcGFjZS9kaWdpdF9yZWFkaW5nLWNvbXBfcmVsZWFzZS0xMi42L3NyYy9yZW5kZXJlcnMvZ29fdDVfczEvaW1nL3JjNjhfZ29fcXN0bm1ya19ob3Zlcl9pcC5zdmc=" x="1004" y="735" xmlns="http://www.w3.org/2000/svg"><defs><clipPath id="sa"><path data-name="Path 5407" d="M12-27.68a9.81 9.81 0 011.647-5.213 12.7 12.7 0 014.806-4.374A15.084 15.084 0 0125.824-39a15.7 15.7 0 016.912 1.449 11.218 11.218 0 014.63 3.94A9.685 9.685 0 0139-28.195a8.4 8.4 0 01-.932 4.035 12.347 12.347 0 01-2.214 2.992q-1.283 1.259-4.6 4.238a18.77 18.77 0 00-1.472 1.476 6 6 0 00-.823 1.164 5.725 5.725 0 00-.419 1.056q-.149.528-.445 1.855a3.008 3.008 0 01-3.213 2.816 3.279 3.279 0 01-2.363-.921 3.623 3.623 0 01-.958-2.735 10.1 10.1 0 01.7-3.94 10.006 10.006 0 011.863-2.925 42.8 42.8 0 013.132-2.992q1.728-1.517 2.5-2.288a7.766 7.766 0 001.3-1.72 4.169 4.169 0 00.526-2.058 4.792 4.792 0 00-1.614-3.658 5.854 5.854 0 00-4.144-1.489 5.724 5.724 0 00-4.374 1.5 11.994 11.994 0 00-2.376 4.428q-.918 3.06-3.483 3.06a3.419 3.419 0 01-2.551-1.07A3.276 3.276 0 0112-27.68zM25.176 2A4.241 4.241 0 0122.3.93a3.757 3.757 0 01-1.229-2.992 3.861 3.861 0 011.189-2.871A4.006 4.006 0 0125.176-6.1a3.883 3.883 0 012.862 1.164A3.907 3.907 0 0129.2-2.062 3.786 3.786 0 0127.984.917 4.093 4.093 0 0125.176 2z" transform="translate(-12 39)" fill="#618ae7" clip-rule="evenodd"/></clipPath></defs><g clip-path="url(#sa)"><path data-name="Path 5406" d="M-6.284 47.298h39.567v-53.6H-6.284z" fill="#618ae7"/></g></svg><svg width="27" height="41" viewBox="0 0 27 41" id="L2hvbWUvdWJ1bnR1L3dvcmtzcGFjZS9kaWdpdF9yZWFkaW5nLWNvbXBfcmVsZWFzZS0xMi42L3NyYy9yZW5kZXJlcnMvZ29fdDVfczEvaW1nL3JjNjhfZ29fcXN0bm1ya19ob3Zlcl9xdWl6LnN2Zw==" x="1031" y="735" xmlns="http://www.w3.org/2000/svg"><defs><clipPath id="ta"><path data-name="Path 5407" d="M12-27.68a9.81 9.81 0 011.647-5.213 12.7 12.7 0 014.806-4.374A15.084 15.084 0 0125.824-39a15.7 15.7 0 016.912 1.449 11.218 11.218 0 014.63 3.94A9.685 9.685 0 0139-28.195a8.4 8.4 0 01-.932 4.035 12.347 12.347 0 01-2.214 2.992q-1.283 1.259-4.6 4.238a18.77 18.77 0 00-1.472 1.476 6 6 0 00-.823 1.164 5.725 5.725 0 00-.419 1.056q-.149.528-.445 1.855a3.008 3.008 0 01-3.213 2.816 3.279 3.279 0 01-2.363-.921 3.623 3.623 0 01-.958-2.735 10.1 10.1 0 01.7-3.94 10.006 10.006 0 011.863-2.925 42.8 42.8 0 013.132-2.992q1.728-1.517 2.5-2.288a7.766 7.766 0 001.3-1.72 4.169 4.169 0 00.526-2.058 4.792 4.792 0 00-1.614-3.658 5.854 5.854 0 00-4.144-1.489 5.724 5.724 0 00-4.374 1.5 11.994 11.994 0 00-2.376 4.428q-.918 3.06-3.483 3.06a3.419 3.419 0 01-2.551-1.07A3.276 3.276 0 0112-27.68zM25.176 2A4.241 4.241 0 0122.3.93a3.757 3.757 0 01-1.229-2.992 3.861 3.861 0 011.189-2.871A4.006 4.006 0 0125.176-6.1a3.883 3.883 0 012.862 1.164A3.907 3.907 0 0129.2-2.062 3.786 3.786 0 0127.984.917 4.093 4.093 0 0125.176 2z" transform="translate(-12 39)" fill="#7861da" clip-rule="evenodd"/></clipPath></defs><g clip-path="url(#ta)"><path data-name="Path 5406" d="M-6.284 47.298h39.567v-53.6H-6.284z" fill="#7861da"/></g></svg><svg width="27" height="41" viewBox="0 0 27 41" id="L2hvbWUvdWJ1bnR1L3dvcmtzcGFjZS9kaWdpdF9yZWFkaW5nLWNvbXBfcmVsZWFzZS0xMi42L3NyYy9yZW5kZXJlcnMvZ29fdDVfczEvaW1nL3JjNjhfZ29fcXN0bm1yay5zdmc=" x="1058" y="735" xmlns="http://www.w3.org/2000/svg"><defs><clipPath id="ua"><path data-name="Path 5407" d="M12-27.68a9.81 9.81 0 011.647-5.213 12.7 12.7 0 014.806-4.374A15.084 15.084 0 0125.824-39a15.7 15.7 0 016.912 1.449 11.218 11.218 0 014.63 3.94A9.685 9.685 0 0139-28.195a8.4 8.4 0 01-.932 4.035 12.347 12.347 0 01-2.214 2.992q-1.283 1.259-4.6 4.238a18.77 18.77 0 00-1.472 1.476 6 6 0 00-.823 1.164 5.725 5.725 0 00-.419 1.056q-.149.528-.445 1.855a3.008 3.008 0 01-3.213 2.816 3.279 3.279 0 01-2.363-.921 3.623 3.623 0 01-.958-2.735 10.1 10.1 0 01.7-3.94 10.006 10.006 0 011.863-2.925 42.8 42.8 0 013.132-2.992q1.728-1.517 2.5-2.288a7.766 7.766 0 001.3-1.72 4.169 4.169 0 00.526-2.058 4.792 4.792 0 00-1.614-3.658 5.854 5.854 0 00-4.144-1.489 5.724 5.724 0 00-4.374 1.5 11.994 11.994 0 00-2.376 4.428q-.918 3.06-3.483 3.06a3.419 3.419 0 01-2.551-1.07A3.276 3.276 0 0112-27.68zM25.176 2A4.241 4.241 0 0122.3.93a3.757 3.757 0 01-1.229-2.992 3.861 3.861 0 011.189-2.871A4.006 4.006 0 0125.176-6.1a3.883 3.883 0 012.862 1.164A3.907 3.907 0 0129.2-2.062 3.786 3.786 0 0127.984.917 4.093 4.093 0 0125.176 2z" transform="translate(-12 39)" fill="none" clip-rule="evenodd"/></clipPath></defs><g clip-path="url(#ua)"><path data-name="Path 5406" d="M-6.284 47.298h39.567v-53.6H-6.284z" fill="#fff"/></g></svg></svg>