<?xml version="1.0" encoding="utf-8"?><svg width="79" height="46" viewBox="0 0 79 46" xmlns="http://www.w3.org/2000/svg" xmlns:xlink="http://www.w3.org/1999/xlink"><svg data-name="icon/correct" width="46" height="46" viewBox="0 0 46 46" id="L2hvbWUvdWJ1bnR1L3dvcmtzcGFjZS9kaWdpdF9yZWFkaW5nLWNvbXBfcmVsZWFzZS0xMi42L3NyYy9pbWcvcmM2OF9pY29uX2NvcnJlY3Quc3Zn" xmlns="http://www.w3.org/2000/svg"><defs><clipPath id="aa"><path data-name="Path 5321" d="M46-23A23 23 0 0123 0 23 23 0 010-23a23 23 0 0123-23 23 23 0 0123 23" fill="none" clip-rule="evenodd"/></clipPath><clipPath id="ab"><path data-name="Path 5323" d="M17.6-12.648l-6.708-8.373a2.142 2.142 0 01.241-2.917 1.912 1.912 0 012.783.254l4.594 5.732 13.653-15.134a1.911 1.911 0 012.792-.081 2.143 2.143 0 01.079 2.928L19.12-12.6a1 1 0 01-1.412.073 1 1 0 01-.108-.121z" fill="none" clip-rule="evenodd"/></clipPath></defs><g data-name="Group 7733" transform="translate(0 46)" clip-path="url(#aa)"><path data-name="Path 5320" d="M-5 5h56v-56H-5z" fill="#39b549"/></g><g data-name="Group 7734" transform="translate(0 46)" clip-path="url(#ab)"><path data-name="Path 5322" d="M5.427-7.273h35.146v-31.46H5.427z" fill="#fff"/></g></svg><svg data-name="icon/incorrect/mc" width="33" height="33" viewBox="0 0 33 33" id="L2hvbWUvdWJ1bnR1L3dvcmtzcGFjZS9kaWdpdF9yZWFkaW5nLWNvbXBfcmVsZWFzZS0xMi42L3NyYy9pbWcvcmM2OF9pY29uX2luY29ycmVjdF9tYy5zdmc=" x="46" xmlns="http://www.w3.org/2000/svg"><defs><clipPath id="ba"><path data-name="Path 5327" d="M.45.447A1.44 1.44 0 000 1.5a1.337 1.337 0 00.45 1.05l5 5.049-5 5A1.337 1.337 0 000 13.645a1.484 1.484 0 00.919 1.389 1.484 1.484 0 001.631-.339l5-5 5.049 5a1.337 1.337 0 001.05.45 1.537 1.537 0 001.5-1.5A1.337 1.337 0 0014.7 12.6l-5-5 5-5.048a1.337 1.337 0 00.45-1.049 1.537 1.537 0 00-1.5-1.5 1.337 1.337 0 00-1.049.45l-5.048 5-5-5A1.337 1.337 0 001.5 0 1.44 1.44 0 00.446.445z" fill="none" stroke="#fff" stroke-width="10"/></clipPath></defs><circle data-name="Ellipse 771" cx="16.5" cy="16.5" r="16.5" fill="#e63e5a"/><g data-name="icon/incorrect"><g data-name="Group 7754" clip-path="url(#ba)" transform="translate(9.434 8.434)"><g data-name="Path 5326" fill="#fff"><path d="M23.779 23.775H-8.63V-8.63h32.408V23.775z"/><path d="M18.779 18.775V-3.63H-3.63v22.404h22.408m10 10H-13.63V-13.63h42.408V28.775z"/></g></g></g></svg></svg>